<?xml version="1.0" encoding="UTF-8"?>
<svg fill="none" viewBox="0 0 562 584" xmlns="http://www.w3.org/2000/svg">
<path d="m531.6 0.93329c-17.867 0.66667-19.467 1.3334-19.6 7.3334-0.133 4.9333-6 13.333-12.533 17.6-15.2 10.267-34.8 2.1334-39.6-16.267-0.8-2.9333-2.4-6.1333-3.6-7.0666-2.134-1.6-38-2.4001-43.867-0.80005-2.133 0.66666-3.2 2.5334-4.4 7.6-3.2 13.467-12.4 20.933-26 20.933-12.133 0-22.133-7.8667-25.333-20-1.067-3.8667-2.667-7.6001-3.6-8.1334-0.934-0.66667-11.2-1.2-22.8-1.2-23.2 0-22-0.39999-24.134 9.4667-2 9.0666-11.6 17.733-21.733 19.333-14.267 2.1333-26.533-7.0667-30.267-22.8-0.533-2.1333-1.733-4.4-2.533-4.9333-0.933-0.53333-11.067-1.0667-22.533-1.0667-20.134 0-20.934 0.13335-22.934 2.9334-1.2 1.6-2.133 4.2667-2.133 5.7333 0 5.4666-6.933 14-14.267 17.467-6.133 3.0666-8 3.3333-15.066 2.5333-7.067-0.8-8.667-1.6-13.867-6.6667-4.4-4.1333-6.133-7.0667-6.8-11.333-1.733-10.133-3.067-10.667-27.2-10.667-23.6 0-22.933-0.26666-26 9.7333-4.1333 13.867-12.933 20.267-27.067 19.333-7.8666-0.5333-8.8-0.9334-14.267-6.2667-3.3334-3.2-7.2-8.6667-8.6667-12.133-4.2667-9.7334-4.6667-9.8667-27.067-10.533-11.333-0.26667-20.533 0.13332-21.2 0.79999-1.3333 1.3333-1.8667 47.467-0.66666 49.6 0.53333 0.6667 4.1333 2.0001 8.2666 2.8001 20.4 4.2666 27.067 26 13.067 42.667-4 4.6667-8.1333 6.6667-15.2 7.3337-7.4667 0.666-8.1333 2.933-7.7333 24.4 0.13333 12.666 0.8 20 2 21.466 0.93333 1.334 4 2.8 6.9333 3.2 8.4 1.067 14.667 5.734 18.267 13.467 4.1333 8.933 4 14.667-0.4 23.6-4.1334 8-11.333 13.2-18.667 13.2-7.8667 0-8.4 1.867-8.4 25.333 0 23.467 0.66667 25.334 8.2667 25.334 6.4 0 15.333 5.866 18.533 12.266 3.8667 7.6 3.8667 17.867 0.1333 24-4.8 7.734-9.3333 11.467-16.267 13.067-3.6 0.8-7.3334 2.533-8.1334 3.6-1.2 1.333-1.7333 8-1.8667 20.8-0.26667 21.867 0.66666 24.933 7.8667 24.933 5.2 0 11.733 4.134 17.067 10.8 4.5333 5.734 6.2667 16.667 3.8667 24.267-1.6 4.8-12 15.467-15.067 15.733-6.6667 0.267-11.333 1.467-12.533 3.2-2.2667 2.934-1.3333 43.334 1.0667 44.8 0.93334 0.667 3.8667 1.2 6.5333 1.2 11.067 0 21.2 12.934 21.2 26.934 0 6-0.6667 8.266-4 12.933-4.8 6.533-11.2 10.8-16.133 10.8-2 0-4.9333 1.2-6.6666 2.533-3.2 2.534-3.2 2.534-3.2 34.934-0.13333 36.8 0.13333 39.466 3.3333 41.2 2.8 1.466 36.8 2 40.4 0.533 1.4667-0.533 4.5333-5.2 6.9333-10.533 5.2-11.467 10.533-15.467 21.467-16.4 12.933-1.067 23.867 6.8 28.4 20.533l2.133 6.533 21.334 0.4c11.733 0.134 22.666 0 24.133-0.4 2-0.4 3.333-2.266 4.267-6.4 2-7.6 6.533-14.133 12.266-17.466 5.6-3.334 18.4-3.734 25.067-0.934 5.067 2.134 12 11.334 13.2 17.734 1.333 7.733 1.467 7.733 25.067 7.733 24 0 22.8 0.4 26.533-9.467 4.4-12 13.2-18.533 25.067-18.533 11.466 0 22.133 8.133 24.533 18.533 0.533 1.867 1.733 4.8 2.667 6.534 1.866 2.8 2.533 2.933 23.066 2.933 18.667 0 21.334-0.267 23.2-2.4 1.334-1.333 2.267-3.2 2.267-4.133 0-4 7.467-15.067 11.867-17.867 3.866-2.4 6.8-2.933 14.8-2.933 9.066 0 10.4 0.4 15.066 4 5.867 4.533 8.267 8.666 9.6 15.6 0.534 2.8 1.734 5.6 2.534 6.4 2.4 1.866 42.533 1.866 46 0 1.6-0.8 3.066-3.067 3.6-5.067 1.466-6.933 3.466-10.667 7.6-14.533 6.133-5.734 11.733-7.6 20.8-6.667 13.2 1.2 19.333 6.133 23.066 18.933 2.534 8.934 1.867 8.667 26.4 8.667 19.2 0 22.534-0.267 23.2-2.133 0.4-1.2 0.8-18.134 0.8-37.734 0-32.933-0.133-35.866-2.4-37.866-1.333-1.334-3.6-2.267-5.066-2.267-5.334-0.133-13.734-5.2-17.334-10.533-5.2-8-5.733-15.734-1.333-24.534 4.267-8.933 6.133-10.533 16.133-14.533 6.667-2.667 8.134-3.867 8.8-7.2 1.467-6.4 1.334-36.533-0.133-39.067-0.8-1.6-3.467-2.8-7.2-3.333-13.067-2-21.333-12.8-20.533-26.8 0.4-6.4 1.333-9.333 4.4-13.733 4-5.734 12.533-10.934 17.6-10.934 6.4 0 7.2-2.8 6.933-24.933-0.133-14.933-0.667-21.067-1.867-22.267-1.066-0.933-4.533-2.133-8-2.533-3.466-0.533-7.866-2.133-10-3.6-7.733-5.467-11.6-20.4-7.866-30.267 2.933-7.733 14.4-16.266 22.133-16.4 1.6 0 3.333-0.666 3.733-1.333 1.6-2.533 2.267-39.2 0.934-42.8-1.067-2.8-2.8-3.867-8.267-5.2-12.4-2.933-20-12.667-20-25.333 0-12.134 7.2-21.067 20-24.8 4-1.2 7.733-2.934 8.267-3.734 0.533-0.8 1.066-10.266 1.066-21.066 0-22.4 0-22.4-11.2-25.6-5.066-1.467-8.4-3.6004-11.466-6.9337-5.334-6.1333-6.667-9.7333-6.667-17.6 0.133-12.667 9.067-24.267 18.8-24.267 2.533 0 5.867-0.9334 7.333-2 2.667-1.8667 2.8-3.0667 2.934-25.333 0-22.533-0.134-23.467-2.934-25.333-1.466-0.93334-4.266-1.6-6.133-1.6-1.867 0.13333-11.067 0.53329-20.4 0.93329z" fill="#2F4156"/>
<path d="m317.87 128.66c-26.47 8.938-42.856 26.7-52.023 56.149-0.803 2.521-3.553 8.938-6.074 14.324-3.896 8.48-6.188 11.344-16.73 21.772-16.73 16.616-52.482 51.336-64.285 62.452-41.94 39.762-81.702 78.035-82.504 79.754-3.6669 6.876 1.0313 9.855 18.792 12.032 6.876 0.917 12.72 1.834 13.063 2.177 1.146 1.146-6.302 9.168-30.939 32.659-30.481 29.335-32.085 31.168-31.627 36.668 0.3438 3.553 1.0314 4.355 6.0733 6.876 5.3857 2.635 6.8754 2.864 22.918 2.864 18.105-0.114 20.167-0.458 34.377-6.646 11.344-4.813 23.147-13.063 38.616-26.699 7.334-6.532 14.095-11.918 15.126-11.918 1.032 0 7.219 1.49 13.751 3.324 6.646 1.948 17.303 4.01 23.835 4.698 6.531 0.687 12.834 1.489 14.209 1.719 2.636 0.573 25.095 33.231 23.949 34.95-0.344 0.572-5.156 0.916-10.771 0.802-11.001-0.23-13.866 0.916-13.866 5.615 0 5.844 2.521 6.187 36.096 6.187 33.346-0.114 34.95-0.458 34.95-6.302 0-4.813-2.75-5.73-17.303-5.73-7.563-0.114-13.98-0.572-14.553-1.145-0.458-0.688-5.042-7.22-9.969-14.668-5.042-7.448-9.855-14.553-10.657-15.699-1.833-2.521-1.833-2.521 19.022-4.583l13.063-1.261 2.177 2.865c1.146 1.49 5.386 6.646 9.282 11.344 11.803 13.98 16.157 19.366 21.199 26.127l4.813 6.531 18.678 0.459c20.512 0.458 23.835-0.229 23.835-5.386 0-5.5-2.292-6.302-18.678-6.302-9.855 0-16.043-0.573-17.647-1.49-2.521-1.375-24.408-27.043-28.189-33.002-2.063-3.208-2.063-3.323 0-4.011 7.219-2.521 28.533-11 29.564-11.802 0.573-0.459 4.698-2.865 9.053-5.272 15.469-8.365 31.283-21.428 41.94-34.606 13.75-17.074 24.98-41.596 29.335-64.285 2.177-11.344 2.062-36.783-0.23-52.826-1.604-10.886-1.718-14.323-0.573-20.855 0.803-4.354 2.292-8.48 3.438-9.511s6.073-2.177 12.605-2.979c12.49-1.375 15.241-2.521 14.782-6.074-0.229-1.375-0.687-2.291-1.031-1.948-0.458 0.344-1.719-0.229-2.865-1.26-1.26-1.031-7.104-2.979-13.063-4.469-12.49-2.865-16.043-4.125-16.043-5.615 0-0.917 13.636-10.084 29.45-20.053 5.844-3.553 8.021-6.99 6.073-9.282-0.802-0.917-1.719-1.604-2.062-1.49-0.459 0.115-1.719-0.229-2.98-0.802-1.146-0.458-8.823-0.229-17.074 0.573-14.094 1.261-15.126 1.261-16.271-0.687-3.553-6.074-12.376-16.501-17.304-20.283-7.333-5.729-18.563-11.344-28.418-14.438-11.459-3.552-29.22-3.323-40.336 0.458z" fill="#FFD44D"/>
<mask id="a" x="86" y="234" width="293" height="153" style="mask-type:alpha" maskUnits="userSpaceOnUse">
<path d="m326.29 359.9 13.321-93.678 39.104-31.798-65.746 22.774-69.614 48.988-99.263 53.714-35.524 4.518-3.258-0.623s-2.753-0.59-3.4-1.974c-1.8-3.848 4.733-9.29 4.733-9.29l-14.117 4.361-4.2972 2.148-1.7188 9.024 4.2971 5.157s12.015 3.898 21.916 5.156c9.901 1.259 27.931 0.86 27.931 0.86l47.698 7.305 137.94-26.642z" fill="#D9D9D9"/>
</mask>
<g mask="url(#a)">
<path d="m317.41 129.13c-26.47 8.938-42.857 26.699-52.024 56.149-0.802 2.521-3.552 8.938-6.073 14.323-3.896 8.48-6.188 11.345-16.73 21.772-16.73 16.616-52.482 51.337-64.285 62.452-41.94 39.763-81.703 78.036-82.505 79.755-3.6669 6.875 1.0313 9.854 18.793 12.032 6.875 0.916 12.719 1.833 13.063 2.177 1.146 1.146-6.302 9.167-30.939 32.658-30.481 29.335-32.085 31.168-31.627 36.669 0.3438 3.552 1.0314 4.354 6.0733 6.875 5.3857 2.636 6.8754 2.865 22.918 2.865 18.105-0.115 20.168-0.459 34.377-6.646 11.345-4.813 23.147-13.064 38.617-26.7 7.334-6.531 14.094-11.917 15.126-11.917 1.031 0 7.219 1.489 13.751 3.323 6.646 1.948 17.303 4.011 23.834 4.698 6.532 0.688 12.834 1.49 14.209 1.719 2.636 0.573 25.096 33.231 23.95 34.95-0.344 0.573-5.157 0.917-10.772 0.802-11-0.229-13.865 0.917-13.865 5.615 0 5.844 2.521 6.188 36.096 6.188 33.345-0.115 34.95-0.459 34.95-6.303 0-4.812-2.75-5.729-17.303-5.729-7.563-0.115-13.98-0.573-14.553-1.146-0.459-0.688-5.042-7.219-9.97-14.668-5.042-7.448-9.854-14.553-10.657-15.698-1.833-2.521-1.833-2.521 19.022-4.584l13.064-1.261 2.177 2.865c1.146 1.49 5.386 6.646 9.282 11.345 11.802 13.98 16.157 19.365 21.199 26.126l4.813 6.532 18.678 0.458c20.511 0.459 23.834-0.229 23.834-5.386 0-5.5-2.291-6.302-18.678-6.302-9.854 0-16.042-0.573-17.647-1.49-2.521-1.375-24.407-27.043-28.189-33.002-2.062-3.208-2.062-3.323 0-4.01 7.22-2.521 28.533-11.001 29.565-11.803 0.572-0.458 4.698-2.865 9.052-5.271 15.47-8.365 31.283-21.428 41.94-34.606 13.751-17.074 24.981-41.596 29.335-64.285 2.177-11.345 2.063-36.784-0.229-52.826-1.604-10.886-1.719-14.324-0.573-20.856 0.802-4.354 2.292-8.479 3.438-9.511 1.146-1.031 6.073-2.177 12.605-2.979 12.49-1.375 15.24-2.521 14.782-6.073-0.23-1.375-0.688-2.292-1.032-1.948-0.458 0.344-1.718-0.229-2.864-1.261-1.261-1.031-7.105-2.979-13.064-4.469-12.49-2.865-16.042-4.125-16.042-5.615 0-0.916 13.636-10.084 29.449-20.053 5.844-3.552 8.022-6.99 6.074-9.282-0.802-0.916-1.719-1.604-2.063-1.489-0.458 0.114-1.719-0.23-2.979-0.802-1.146-0.459-8.824-0.23-17.074 0.572-14.095 1.261-15.126 1.261-16.272-0.687-3.552-6.073-12.376-16.501-17.303-20.283-7.334-5.729-18.564-11.344-28.418-14.438-11.459-3.552-29.221-3.323-40.336 0.459zm33.231 8.135c18.22 2.865 39.534 18.793 44.805 33.69 1.604 4.469 1.604 5.5 0.114 9.282-2.979 7.219 0.573 21.199 6.647 26.126 1.375 1.146 1.26 2.292-0.688 7.334-3.094 7.677-4.125 26.012-2.063 34.95 0.917 4.01 1.49 14.209 1.375 26.699 0 19.022-0.229 21.085-3.666 33.117-9.741 35.408-24.179 54.774-56.952 76.66-26.585 17.762-48.013 25.21-78.494 27.158-18.105 1.261-47.784-2.062-63.826-7.219-9.168-2.865-19.824-3.438-23.835-1.146-1.375 0.802-6.99 5.501-12.605 10.657-15.126 13.751-21.314 18.22-32.773 23.949-12.146 5.959-22.803 8.595-35.752 8.595-10.198 0-14.324-0.802-14.324-2.75 0-0.688 11.344-12.491 25.324-26.242 13.98-13.75 28.074-28.189 31.512-31.97l6.073-6.876 30.71-0.343c16.845-0.115 32.773-0.573 35.294-1.032 2.521-0.343 6.876-0.916 9.74-1.375 7.105-0.916 25.21-5.5 34.95-8.938 38.732-13.407 65.202-37.814 76.203-70.473 2.979-8.938 4.354-27.845 2.291-31.626-1.604-3.094-6.531-4.011-7.448-1.49-0.344 0.802-0.687 5.844-1.031 11.23-0.802 18.105-7.907 34.491-21.543 49.846-9.855 11.116-17.074 16.73-29.679 23.377-13.751 7.219-27.158 11.917-44.232 15.469-20.626 4.24-33.002 5.386-60.274 5.386-23.262 0-29.793-0.458-50.42-3.667l-7.677-1.26 4.354-4.126c2.407-2.406 16.96-16.386 32.429-31.283 15.355-14.896 38.502-36.783 51.451-48.586 12.949-11.917 27.616-25.782 32.658-30.939 5.042-5.042 13.178-12.834 18.22-17.189 8.938-7.906 17.074-18.105 20.397-25.782 1.031-2.177 4.469-11.001 7.792-19.481 6.073-15.469 10.657-23.834 16.73-30.595 14.897-16.272 34.377-22.689 58.212-19.137z" fill="#2F4156"/>
</g>
<path d="m345.26 172.78c-3.896 2.292-5.844 7.793-4.469 13.064 1.948 8.021 10.657 11 17.991 6.073 3.667-2.521 3.896-2.979 3.896-9.282-0.114-6.073-0.458-6.99-3.438-9.396-4.125-3.323-9.052-3.552-13.98-0.459z" fill="#2F4156"/>
<line x1="468.47" x2="493.47" y1="182" y2="182" stroke="#FFD44D" stroke-linecap="round" stroke-width="15"/>
<line x1="471.21" x2="492.86" y1="220.15" y2="232.65" stroke="#FFD44D" stroke-linecap="round" stroke-width="15"/>
<line x1="468.16" x2="489.81" y1="145.85" y2="133.35" stroke="#FFD44D" stroke-linecap="round" stroke-width="15"/>
</svg>
