<?xml version="1.0" encoding="UTF-8"?>
<svg viewBox="0 0 1512 1692" xmlns="http://www.w3.org/2000/svg">
<rect y="1508" width="842" height="57" rx="28.5" fill="#2F4156"/>
<path d="m1004.6 494.86c78.28 73.758 118.83 164.49 133.07 267.73 2.32 16.847 9.91 24.324 24.37 29.344 19.9 6.905 38.14 17.109 54.45 30.63 40.43 33.497 43.47 80.676 6.79 117.69-7.28 7.345-11.46 14.61-11.4 25.03 0.26 48.855 0.49 97.725-0.02 146.58-0.15 14.89 5.84 21.9 20.23 25.23 29.68 6.86 59.25 14.42 88.45 23.09 28.88 8.57 35.08 22.13 22.12 48.32-5.46 11.03-4.96 21.91-4.98 33.07-0.15 82.02-0.08 164.04-0.12 246.05-0.01 7.85 0.33 15.77-0.53 23.54-1.84 16.58-10.3 29.03-27.85 28.91-17.63-0.12-25.91-12.4-26.81-29.41-0.46-8.71-0.3-17.45-0.3-26.17-0.01-83.76-0.64-167.53 0.49-251.28 0.28-20.69-7.59-28.94-26.55-34.23-92.64-25.84-187.43-38.81-282.67-49.56-117.27-13.23-235.01-13.59-352.64-9.94-143.03 4.45-284.8 20.93-423.86 56.34-36.87 9.39-35.59 9.53-35.123 47.93 1.029 84.62 0.722 169.25 0.805 253.88 6e-3 6.06-0.793 12.21-2.011 18.16-3.037 14.83-12.147 23.2-27.579 22.11-15.474-1.08-23.667-10.56-23.915-25.83-0.454-27.91-0.305-55.83-0.297-83.75 0.017-57.59 0.164-115.17 0.135-172.76-0.01-19.06 0.213-37.4-9.8861-55.64-9.8792-17.84-0.5405-32.61 18.613-38.17 31.761-9.23 63.737-17.93 96.02-25.04 15.766-3.48 22.072-10.74 21.931-26.58-0.426-47.99-0.31-95.98 0.148-143.96 0.11-11.613-4.854-18.921-13.045-26.684-33.692-31.937-33.463-75.592-0.166-108.22 17.715-17.356 38.858-29.658 61.862-38.323 15.822-5.96 21.761-15.975 24.374-32.879 26.669-172.56 119.27-292.53 285.66-351.41 18.421-6.518 25.016-15.251 23.79-33.754-1.208-18.245-0.692-36.638-0.232-54.949 0.425-16.903-0.847-30.402-18.38-41.509-18.851-11.941-11.029-37.604 12.981-41.8 17.157-2.999 23.39-10.476 26.207-26.339 4.173-23.498 17.648-42.233 38.343-53.634 16.409-9.04 20.457-21.38 19.827-38.631-0.986-27.012-0.749-54.098-0.104-81.13 0.427-17.86 1.76-37.253 26.526-36.904 24.115 0.33936 22.986 19.082 23.016 36.042 0.05 28.793 0.624 57.598-0.044 86.374-0.316 13.653 3.862 23.121 15.945 30.152 15.383 8.949 27.352 21.855 34.791 38.121 9.885 21.615 11.038 47.939 45.351 51.219 16.486 1.576 19.534 27.009 4.137 37.437-17.244 11.678-14.454 26.799-17.103 42.893-8.896 54.05 6.899 86.583 64.865 100.96 42.031 10.42 76.683 40.525 110.32 71.666zm-22.836 56.999c-114.08-112.3-269.63-141.91-411.97-78.425-106.12 47.331-206.34 189.61-202.1 290.62 235.41-50.272 470.94-50.493 711.82-0.615-9.64-82.431-40.56-150.84-97.746-211.58zm158.33 565.13c19.53-0.7 15.17-16.82 15.46-27.14 1.13-39.22-0.74-78.55 0.99-117.73 0.96-21.83-8.23-31.051-27.73-36.728-81.52-23.73-165.1-35.887-249.35-41.826-93.017-6.558-186.19-7.718-279.57-2.295-96.047 5.578-190.51 18.503-283.45 43.402-19.179 5.138-27.242 14.4-26.167 34.754 1.516 28.706 0.472 57.55 0.357 86.34-0.306 76.61-4.755 59.46 63.581 53.17 16.698-1.54 24.342-10.3 23.846-27.7-0.794-27.89-0.594-55.82-0.031-83.723 0.365-18.075 9.271-30.852 28.399-30.764 19.836 0.091 26.29 13.238 25.892 31.749-0.544 25.288 0.288 50.598-0.177 75.888-0.264 14.29 4.871 21.26 19.99 19.68 19.054-1.99 38.16-4.3 57.276-4.63 17.953-0.31 24.57-7.76 24.034-25.57-0.919-30.5-0.191-61.05-0.084-91.583 0.057-16.148 7.545-27.683 23.876-29.085 17.682-1.517 27.52 9.646 29.777 26.386 1.505 11.164 0.954 22.627 1.031 33.962 0.571 83.62 0.528 83.14 83.855 79.69 18.405-0.76 24.401-7.69 23.924-25.29-0.826-30.5 0.103-61.052-0.148-91.579-0.163-19.826 8.291-32.817 28.761-32.468 19.202 0.326 26.925 13.368 26.869 31.736-0.091 29.657 0.67 59.331-0.2 88.961-0.502 17.11 4.568 26.34 23.179 26.35 20.03 0.02 40.106 1 60.076 2.62 18.799 1.52 24.423-7.05 23.765-24.68-0.942-25.26 0.012-50.58-0.121-75.876-0.097-18.614 5.382-34.483 26.491-34.735 22.243-0.265 28.881 15.856 28.894 35.621 0.018 27.91 0.098 55.83 0.137 83.74 0.015 10.04 0.418 20.41 13.88 20.77 26.765 0.71 53.193 7.9 79.993 5.19 5.62-10.82 2.99-21.45 3.48-31.69 1.06-21.73-1.65-43.59 2.52-65.241 3.15-16.343 11.11-28.906 29.12-27.137 17.41 1.71 24.84 14.102 24.02 31.558-0.53 11.32-0.45 22.67-0.49 34.01-0.21 71.21-0.19 71.21 74.04 81.89zm-873.71-251.03c-5.938 7.029-16.636 13.302-9.024 24.122 6.154 8.748 15.754 4.421 24.027 1.674 124.39-41.306 253.49-55.162 383.18-58.513 170.99-4.418 341.38 4.177 505.96 58.634 6.81 2.254 14.11 5.119 19.17-1.714 6.13-8.269 0.07-14.974-5.58-20.422-17.35-16.723-38.95-26.128-61.24-33.983-90.33-31.832-184.11-43.872-279.18-49.19-144.73-8.096-289.08-8.073-431.64 22.472-50.143 10.744-100.46 22.724-145.67 56.92zm479.89-550.72c0.057 18.19 0.181 36.379 0.145 54.569-0.019 9.976 3.207 16.656 14.581 17.213 12.06 0.591 17.864-5.085 18.006-16.736 0.241-19.918 0.404-39.843 0.195-59.76-0.114-10.894 2.603-23.758-15.11-24.289-18.476-0.554-18.095 11.88-17.817 29.003zm-48.791 8.583c-0.102-5.179-0.056-10.367-0.336-15.537-0.563-10.394 0.175-21.927-15.194-21.995-16.035-0.071-14.175 11.896-14.264 22.089-0.175 19.858-0.037 39.718 0.031 59.577 0.035 9.961 0.412 19.803 14.414 19.372 13.024-0.401 14.939-9.482 15.104-19.711 0.208-12.948 0.248-25.899 0.245-43.795zm35.288-130.56c-29.071-0.992-41.134 9.653-44.534 40.704 22.783 1.041 45.432 4.32 69.39-2.936-2.915-16.735-8.298-28.664-24.856-37.768z" fill="#2F4156"/>
<path d="m1048.1 1280.3c-23.8-3.17-26.7 9.77-26.62 26.87 0.3 61.06 0.38 122.12-0.13 183.18-0.3 35.68-9.88 52.13-29.054 49.24-28.574-4.31-27.048-27.93-27.231-48.87-0.546-62.8-1.166-125.62-0.417-188.41 0.26-21.8-4.228-33.33-29.528-34.82-23.444-1.37-47.324-0.1-70.331-4.2-26.605-4.73-30.432 6.67-30 29.55 1.233 65.4 0.462 130.84 0.444 196.26-2e-3 7.85 0.221 15.74-0.43 23.54-1.332 15.95-9.784 26.74-26.077 27.38-15.48 0.61-23.599-10.34-26.462-24.24-1.911-9.28-1.884-19.05-1.92-28.6-0.254-67.17-0.765-134.34-0.111-201.5 0.182-18.71-5.171-27.4-25.221-26.2-21.73 1.29-43.644 1.14-65.393 0.01-20.237-1.05-27.758 6.47-27.475 27.19 0.976 71.52 0.268 143.06 0.631 214.59 0.1 19.76-1.41 39.45-26.738 38.92-23.719-0.49-28.199-18.99-28.151-39.24 0.162-68.04 0.08-136.08-0.127-204.12-0.032-10.28 1.873-20.89-3.732-32.41-36.747-2.77-73.749 1.68-110.72 5.64-16.514 1.77-14.073 15.17-14.096 26.2-0.133 63.68-0.036 127.36-0.049 191.04-2e-3 7.85 0.261 15.74-0.399 23.54-1.364 16.12-10.689 26.21-26.453 27.39-15.788 1.19-23.399-10.31-26.637-23.92-1.985-8.34-1.901-17.29-1.93-25.96-0.198-60.19-1.112-120.4 0.227-180.56 0.533-23.91-8.046-31.89-30.634-27.59-9.383 1.78-18.963 2.51-28.385 4.12-61.049 10.43-60.847 10.46-60.158 73.66 0.485 44.49 0.376 88.98 0.453 133.46 0.011 6.1 0.314 12.34-0.821 18.26-3.168 16.54-12.868 27.39-30.404 26.19-16.854-1.15-23.465-12.92-23.473-29.02-0.027-55.82-0.225-111.65-0.135-167.48 0.028-17.51-0.644-33.28-13.812-48.39-14.134-16.22-5.516-33.76 18.261-40.52 43.642-12.42 88.584-19.06 133.42-24.81 137.63-17.67 275.93-25.65 414.64-20.53 126.25 4.66 251.89 16.5 375.88 42.01 37.72 7.76 43.84 23.29 21.87 55.03-5.58 8.05-4.84 16.5-4.87 25.04-0.22 54.95-0.16 109.91-0.3 164.86-0.02 7.84 0.27 15.84-1.18 23.46-2.7 14.18-10.9 24.68-26.24 24.37-14.96-0.3-23.73-10.18-26.16-24.67-1.29-7.67-1.07-15.64-1.08-23.48-0.14-58.44-0.59-116.89 0.06-175.33 0.19-17.22-5.24-25.41-23.29-26.8-22.51-1.74-44.82-6.04-69.51-9.33z" fill="#2F4156"/>
<path d="m556.8 1171.1c-4.731-20.82 7.733-41.69 28.312-47.4l768.86-213.33c21.79-6.046 44.25 7.16 49.57 29.139l75.91 313.79 31.06 151.92c4.23 20.7-8.37 41.13-28.77 46.63l-397.29 107.2-358.27 113.27c-27.885 8.82-57.352-8.07-63.831-36.59l-105.55-464.63z" fill="#fff"/>
<path d="m1330.1 1644.9c-15.23 15.29-41.6 17.25-58.43-2.83-6.98-8.33-14.97-15.88-20.76-25.1-5.17-8.23-12.98-9.72-21.28-9.27-8.9 0.47-17.78 1.92-26.58 3.47-22.82 4.02-51.36-13.81-48.99-44.93 0.75-9.86 1.65-19.71 2.68-29.53 0.82-7.82-2.31-14.04-7.08-19.86-5.99-7.3-13.65-12.72-20.61-18.94-3.98-3.56-7.99-7.1-11.73-10.9-15.13-15.33-15.69-34.94-1.22-51.08 8.94-9.97 19.71-18.01 29.95-26.53 9.51-7.91 12.01-17.55 10.28-29.08-1.28-8.48-2.2-16.98-2.08-25.58 0.41-28.69 21.25-46.08 49.66-41.46 8.82 1.43 17.71 2.44 26.59 3.55 8.51 1.06 15.13-1.81 20.11-9.1 6.78-9.91 14.16-19.41 21.04-29.25 10.43-14.92 34.73-21.5 52.46-6.15 9.75 8.44 16.23 19.67 24.25 29.58 1.8 2.22 3.51 4.53 5.09 6.91 4.83 7.31 11.6 8.88 19.92 7.83 11.69-1.46 23.2-4.3 35.07-4.29 23.32 0.02 40.36 16.82 40.92 40.2 0.26 10.88-0.44 21.71-1.41 32.52-0.97 10.9 2.89 19 12 25.36 11.21 7.83 23.03 15.05 31.53 26.22 12.26 16.11 11.25 34.54-2.87 49.1-7.58 7.83-16.25 14.43-24.42 21.58-7.45 6.51-15.42 12.84-16.82 23.64-0.97 7.52 1.36 14.71 2.65 21.99 2.02 11.36 2.49 22.35-1.64 33.7-5.33 14.7-22.87 24.14-36.17 25.06-12.06 0.83-23.81-2.43-35.67-4.02-8.69-1.17-15.55 0.54-21.04 7.97-7.6 10.28-16.32 19.65-25.4 29.22z" fill="#FFD44D"/>
<path d="m1222.5 1409.8v83.64h-20.17v-64.77h-0.49l-18.71 11.43v-17.48l20.63-12.82h18.74zm50.51 84.78c-6.1 0-11.52-1.1-16.26-3.31-4.73-2.2-8.48-5.24-11.23-9.11-2.72-3.86-4.14-8.3-4.24-13.31h19.6c0.16 3.08 1.41 5.56 3.75 7.43 2.35 1.86 5.14 2.78 8.38 2.78 2.53 0 4.77-0.56 6.74-1.67 1.96-1.12 3.49-2.68 4.61-4.7 1.12-2.04 1.66-4.38 1.63-7.02 0.03-2.7-0.53-5.05-1.67-7.07-1.12-2.01-2.67-3.58-4.66-4.7-1.96-1.14-4.22-1.71-6.78-1.71-2.42-0.03-4.72 0.5-6.9 1.59-2.15 1.09-3.78 2.58-4.9 4.45l-17.84-3.35 3.63-45.08h53.66v16.29h-37.04l-1.92 19.73h0.49c1.39-2.32 3.62-4.22 6.7-5.72 3.1-1.52 6.63-2.29 10.58-2.29 5.01 0 9.47 1.18 13.39 3.52 3.95 2.31 7.05 5.52 9.31 9.63 2.29 4.12 3.43 8.83 3.43 14.13 0 5.75-1.36 10.84-4.08 15.28-2.7 4.44-6.48 7.92-11.35 10.45-4.85 2.51-10.53 3.76-17.03 3.76zm60.71-63.87 10.33 20.66 10.7-20.66h20.14l-17.52 31.36 18.17 31.37h-19.97l-11.52-20.83-11.23 20.83h-20.25l18.21-31.37-17.31-31.36h20.25z" fill="#2F4156"/>
<path d="m1273.4 911.23c22.51-6.147 44.6-11.768 67.19-15.607 28.59-4.859 53.18 0.637 71.6 24.433 8.81 11.379 12.42 25.13 15.77 38.788 10.58 43.19 19.17 86.85 30.2 129.95 12.37 48.33 22.76 97.1 31.99 146.12 0.3 1.57 0.5 3.18 0.56 4.77 0.34 9.44-3.63 15.18-11.35 16.52-7.71 1.33-14.26-3.21-16.35-12.48-6.29-27.95-11.87-56.06-18.37-83.96-9.26-39.82-19.22-79.49-28.64-119.28-6.14-25.93-11.81-51.974-17.82-77.938-1.13-4.872-2.67-9.673-4.36-14.386-6.09-16.981-21.3-25.97-39.25-24.149-18.45 1.872-36.29 6.392-54.12 11.174-92.27 24.76-183.2 54.005-274.45 82.199-93.932 29.02-188.53 55.61-284.07 78.86-37.991 9.24-75.729 19.5-113.91 27.99-11.556 2.57-22.825 6.18-32.612 13.46-19.129 14.22-25.642 33.39-21.9 56.24 7.231 44.14 18.986 87.3 29.634 130.68 14.381 58.58 26.274 117.7 38.498 176.74 8.648 41.78 17.591 83.5 26.728 125.17 6.48 29.55 26.424 41.59 56.726 33.86 30.748-7.84 60.766-18.11 90.344-29.6 53.929-20.94 109.08-38.25 164.33-55.24 18.796-5.77 37.621-11.46 56.441-17.17 2.3-0.69 4.59-1.51 6.95-1.91 7.72-1.34 13.98 2.18 16.39 9.03 2.53 7.17 0.01 14.56-7.13 17.83-6.34 2.9-13.17 4.82-19.87 6.87-63.923 19.5-127.81 39.11-190.49 62.4-33.297 12.37-66.367 25.43-100.94 33.97-15.797 3.9-31.759 7.48-48.12 3.58-29.722-7.09-47.016-26.29-53.271-55.78-14.136-66.64-28.111-133.31-42.219-199.96-11.541-54.52-25.198-108.55-37.897-162.8-5.981-25.55-13.09-50.95-15.94-77.07-3.888-35.62 7.163-66.84 45.191-87.59 16.941-9.24 35.821-12.73 54.301-17.34 101.74-25.37 203.79-49.56 304.15-80.16 75.421-22.987 150.82-46.083 226.29-68.921 33.02-9.993 66.2-19.455 99.79-29.293z" fill="#2F4156"/>
<path d="m1332.5 1657c-16.05 16.12-43.83 18.18-61.57-2.98-7.35-8.77-15.76-16.74-21.87-26.45-5.44-8.67-13.67-10.24-22.42-9.77-9.38 0.5-18.74 2.03-28 3.66-24.04 4.24-54.12-14.55-51.62-47.35 0.79-10.39 1.73-20.77 2.82-31.12 0.86-8.25-2.43-14.8-7.46-20.93-6.31-7.69-14.38-13.41-21.71-19.96-4.2-3.75-8.42-7.49-12.36-11.49-15.95-16.15-16.53-36.82-1.29-53.82 9.42-10.51 20.77-18.98 31.56-27.96 10.02-8.34 12.66-18.5 10.82-30.65-1.34-8.93-2.3-17.89-2.18-26.96 0.43-30.23 22.39-48.55 52.33-43.69 9.29 1.51 18.66 2.58 28 3.74 8.98 1.12 15.95-1.91 21.2-9.58 7.14-10.45 14.92-20.46 22.17-30.83 10.98-15.73 36.59-22.66 55.27-6.48 10.27 8.9 17.1 20.73 25.55 31.17 1.9 2.34 3.7 4.78 5.36 7.29 5.09 7.7 12.23 9.35 21 8.25 12.3-1.55 24.43-4.54 36.94-4.53 24.57 0.02 42.53 17.73 43.12 42.36 0.28 11.48-0.47 22.88-1.48 34.28-1.03 11.48 3.04 20.02 12.63 26.72 11.82 8.25 24.27 15.86 33.23 27.64 12.91 16.97 11.85 36.39-3.02 51.74-7.99 8.24-17.12 15.2-25.74 22.74-7.85 6.86-16.24 13.53-17.71 24.92-1.03 7.91 1.42 15.5 2.78 23.17 2.13 11.97 2.62 23.55-1.72 35.51-5.63 15.49-24.1 25.44-38.11 26.4-12.71 0.88-25.09-2.56-37.59-4.23-9.16-1.23-16.38 0.57-22.17 8.4-8 10.83-17.19 20.71-26.76 30.79zm-71.81-328.05c-6.82 5.91-14.78 8.35-23.77 8.72-14.36 0.59-28.38-1.6-42.42-4.01-11.93-2.05-22.7 7.97-20.8 19.86 1.27 7.93 2.11 15.89 3 23.84 2 18.02-0.99 34.33-15.96 46.77-10.34 8.59-20.41 17.53-30.19 26.76-9.41 8.88-9.06 15.66 0.78 24.22 8.32 7.25 16.96 14.14 25.37 21.3 8.87 7.56 16.1 16.23 18.53 28.1 2.24 10.93 2.31 21.9 1.31 32.95-0.66 7.38-2.29 14.68-1.92 22.14 0.46 9.16 6.87 15.78 15.96 15.15 11.56-0.79 23.02-3.15 34.59-3.84 15.98-0.96 30.87 2.08 41.4 15.79 7.72 10.05 15.9 19.68 24.62 28.86 8.84 9.3 16.46 9.05 24.84-0.72 8.36-9.75 16.78-19.46 25.18-29.18 10.9-12.6 24.51-17.11 41.01-14.82 9.13 1.26 18.23 2.75 27.37 3.86 17.63 2.14 26.36-7.15 23.27-24.62-0.07-0.39-0.23-0.77-0.32-1.16-2.59-11.62-3.71-23.37-2.92-35.27 0.7-10.5 4-19.9 11.39-27.76 10.38-11.02 22.45-20.07 33.84-29.91 11.62-10.03 11.89-17.19 0.89-28.04-1.56-1.54-3.31-2.93-5.11-4.19-6.74-4.74-13.46-9.5-20.32-14.05-14.24-9.48-20.99-22.83-20.68-39.78 0.24-13.04 1.01-26.07 1.07-39.11 0.05-11.1-6.29-17.14-17.28-17.17-2.8-0.01-5.68 0.06-8.39 0.69-12.62 2.89-25.39 3.62-38.27 3.22-7.23-0.22-13.77-2.27-19.69-6.5-6.36-4.53-10.55-10.96-15.21-16.98-6.75-8.73-12.5-18.25-20.1-26.32-6.43-6.83-14.39-6.39-20.15 0.91-2.24 2.83-4.28 5.83-6.5 8.68-8.03 10.26-14.26 21.91-24.42 31.61z" fill="#2F4156"/>
<path d="m942.75 1326.4c-22.793 13.34-46.689 14.14-71.525 9.52-13.588-2.54-26.837-6.95-40.663-7.98-21.712-1.62-40.351 6.9-58 18.44-20.433 13.36-41.674 25.02-65.879 30.19-3.532 0.75-7.051 1.55-10.697 1.09-6.936-0.87-11.139-5.06-12.146-12.08-0.841-5.86 2.333-11.4 8.12-14.06 1.272-0.59 2.603-1.14 3.966-1.41 21.977-4.31 40.902-15.12 59.09-27.55 19.738-13.5 41.201-22.48 65.299-24.1 11.11-0.74 22.028 1.13 32.746 3.86 13.621 3.46 27.292 6.61 41.351 7.48 11.101 0.69 21.65-1.8 31.066-7.7 12.594-7.89 24.881-16.27 37.316-24.42 15.49-10.14 32.842-15.87 50.417-20.97 7.17-2.08 14.24 1.91 16.98 8.91 2.64 6.73 0.19 14.03-6.14 17.68-2.06 1.18-4.35 2.17-6.66 2.73-20.097 4.85-37.552 14.94-54.154 26.86-6.518 4.68-13.391 8.87-20.487 13.51z" fill="#2F4156"/>
<path d="m979.24 1145.4c4.773 9.4 3.341 15.73-4.746 21.17-15.993 10.75-31.848 21.77-49.312 30.07-16.516 7.86-33.952 11.86-52.326 11.95-13.265 0.06-26.5-0.3-39.709-1.38-28.292-2.32-54.548 4.44-79.355 17.65-24.862 13.25-50.21 25.25-77.948 31.32-6.038 1.32-11.696 0.88-15.892-4.33-3.721-4.62-4.452-9.78-1.871-15.22 1.714-3.62 4.395-6.32 8.342-7.3 28.71-7.15 54.579-20.97 80.78-34.09 28.272-14.16 58.389-19.75 89.853-17.41 7.614 0.57 15.231 0.54 22.819 1.16 25.192 2.04 48.051-4.54 69.125-18.18 9.944-6.44 19.985-12.73 30.132-18.84 7.771-4.68 13.483-3.64 20.108 3.43z" fill="#2F4156"/>
<path d="m790.84 1466.2c-20.243 6.45-35.322 19.58-49.567 33.93-1.272 1.28-2.368 2.74-3.693 3.96-5.976 5.49-13.672 6.07-19.154 1.52-5.912-4.91-7.513-13.83-2.048-20.03 21.486-24.4 45.939-44.66 79.443-49.63 14.204-2.11 28.363 1.14 42.333 3.91 9.935 1.97 19.915 2.42 29.937 1.4 13.38-1.35 24.218-7.93 33.726-17.07 2.902-2.79 5.86-5.66 9.992-6.42 5.496-1.01 10.423 0.16 13.969 4.87 3.751 4.98 4.052 12.1 0.476 17.54-5.32 8.1-13.218 13.47-21.211 18.43-16.436 10.21-34.686 12.74-53.718 12-13.719-0.53-26.932-3.96-40.377-6.05-6.654-1.04-13.192-0.28-20.108 1.64z" fill="#2F4156"/>
<path d="m1322.2 974.37c-5.21 4.028-9.89 5.528-16.86 5.355-7.66-0.191-11.18 1.107-16.65 6.514-5.71 5.402-8.06 6.268-11.5 4.334-10.07-5.795-21.54-2.385-27.6 7.859-1.94 3.189-2.87 3.159-8.35-0.67-8.91-6.228-21.05-3.528-27.09 5.789-7.01 10.69-6.29 19.02 1.63 27.53 4.53 4.74 6.31 8.01 4.87 9.83-7.67 9.28-5.02 24.36 5.5 31.09 5.48 3.6 6.14 5 4.2 8.42-4.37 7.51-1.32 24.91 5.5 30.86 5.46 4.98 5.89 6.38 3.4 12.79-4.22 10.98-3.4 15.39 3.61 22.95 8.61 9 16.96 9.2 26.01 0.42 5.71-5.4 8.06-6.27 11.49-4.33 8.7 5.06 17.58 3.21 25.45-5.14 6.21-6.78 8.09-7.66 11.76-5.49 8.24 4.6 16.65 2.96 24.74-4.69 7.61-7.2 8.08-7.19 14.73-4.02 8.49 4.37 17.36 2.74 25.21-4.69 8.8-8.33 7.87-17.36-2.8-27.33-6.59-6.17-8.14-8.98-6.44-11.94 1.21-2.05 2.07-8.49 1.75-14.51-0.46-9.48-1.33-11.58-7.73-15.9-5.03-3.36-6.82-5.94-5.61-8.22 0.75-1.83 1.84-8.5 1.99-14.5 0.24-9.47-0.85-12.27-5.85-16.78-5.45-4.99-5.66-5.92-3.12-14.632 3.29-11.005 0.24-19.166-8.71-23.547-8.72-4.144-15.94-3.4-23.53 2.648z" fill="#2F4156"/>
</svg>