<?xml version="1.0" encoding="UTF-8"?>
<svg fill="none" viewBox="0 0 1475 1268" xmlns="http://www.w3.org/2000/svg">
<path d="m741.9 571.4c-16.703 3.045-36.348 8.715-73.536 21.001-42.862 14.071-71.121 22.787-114.51 35.178-7.459 2.1-18.174 5.25-23.637 6.825-17.754 5.355-46.118 11.971-127.11 29.822-53.892 11.971-90.134 20.056-122.38 27.407-8.615 1.995-25.528 5.775-37.504 8.4-22.586 5.041-50.635 13.861-74.797 23.522-17.544 7.036-20.905 8.821-26.368 13.966-7.039 6.405-9.455 12.181-9.35 22.367 0.105 13.44 3.467 23.311 13.237 39.587 9.349 15.646 23.637 37.278 36.453 55.444 4.727 6.615 16.283 23.627 25.738 37.803 9.559 14.176 23.216 34.022 30.465 44.103 13.972 19.636 34.247 48.408 59.879 85.059 24.898 35.8 30.15 41.68 44.753 50.4 11.345 6.72 27.838 12.18 41.075 13.55 21.641 2.2 38.869-0.74 86.037-14.5 17.754-5.14 142.56-46.83 203.28-67.83 16.178-5.67 41.706-14.491 56.728-19.636 15.023-5.146 32.041-11.026 37.819-13.021 38.344-13.336 102.53-34.967 117.13-39.378 9.56-2.94 23.952-7.35 32.041-9.87 23.742-7.351 56.728-17.327 71.435-21.527 21.12-6.09 52-15.121 68.28-19.951 8.09-2.31 17.13-5.041 19.96-5.776 41.29-11.655 52.21-16.171 60.83-24.991 8.82-9.031 10.08-17.117 4.62-28.142-2.2-4.621-5.88-9.241-11.76-15.121-10.93-10.711-24.38-20.897-64.19-48.409-10.4-7.245-22.48-15.646-26.79-18.691s-17.33-12.076-28.89-20.056c-22.06-15.331-67.968-47.988-78.893-56.074-3.572-2.625-11.871-8.716-18.384-13.441-6.618-4.725-26.158-18.901-43.492-31.397-17.333-12.496-34.562-25.097-38.344-27.932-22.796-17.221-57.883-24.467-89.819-18.691zm40.445 9.87c13.762 2.521 15.863 3.676 54.942 32.133 3.572 2.52 17.649 12.915 31.201 22.996 38.974 28.877 42.756 31.712 57.778 42.843 34.142 25.202 71.331 51.874 95.596 68.465 33.72 22.996 69.97 49.983 79.21 58.804 6.41 6.09 11.14 14.281 11.14 19.321 0 4.725-3.89 10.921-9.25 14.911-5.67 4.2-18.8 8.611-63.24 21.002-15.86 4.41-33.83 9.66-39.919 11.55-6.093 1.995-15.968 4.831-22.061 6.301s-16.914 4.62-24.162 6.825c-7.249 2.31-17.334 5.251-22.586 6.721-34.142 9.45-124.7 38.537-186.99 59.959-17.859 6.09-40.13 13.756-49.374 16.801-9.245 3.15-27.629 9.556-40.971 14.281-52.316 18.481-177.96 59.961-211.15 69.621-40.761 11.86-58.829 12.81-77.003 3.99-10.506-5.04-21.431-18.06-53.052-63.425-1.576-2.311-9.454-12.916-17.333-23.627-7.879-10.606-16.073-21.632-18.069-24.467-4.307-5.88-11.451-15.751-26.473-36.332-5.988-8.191-16.283-22.787-22.902-32.342-6.618-9.661-14.497-20.687-17.438-24.572-11.766-15.541-42.651-62.584-48.955-74.66-3.256-6.196-3.571-8.821-1.68-15.016 2.836-9.451 16.073-19.427 37.188-28.037 18.489-7.456 20.59-7.981 131.21-35.283 20.275-5.04 68.914-17.011 108.2-26.776 39.289-9.661 74.271-18.167 77.738-18.902s6.828-1.68 7.354-2.1c0.63-0.42 11.03-3.675 23.111-7.14 12.186-3.571 28.889-8.401 37.294-10.816 8.404-2.415 16.703-4.725 18.384-5.145 8.719-2.101 64.397-19.847 87.718-27.827 25.213-8.611 53.051-16.906 68.284-20.267 6.828-1.47 17.228-1.365 26.263 0.21z" fill="#2F4156"/>
<path d="m792.95 658.87c-9.665 9.346-12.396 11.341-20.695 14.596-10.505 4.306-15.653 5.041-40.865 5.461-34.457 0.735-47.379 2.625-61.456 9.45-7.774 3.781-14.707 9.871-14.707 13.021 0 2.94 4.307 6.091 10.505 7.561 6.724 1.575 10.926 0.315 18.069-5.881 10.4-8.82 19.12-10.605 57.148-11.34 27.839-0.526 38.344-2.101 51.056-7.561 12.081-5.145 19.119-10.291 26.368-19.531 2.941-3.676 3.887-5.566 3.361-7.246-1.05-3.15-8.404-6.195-15.127-6.195-5.568 0-5.673 0.105-13.657 7.665z" fill="#2F4156"/>
<path d="m870.59 715.88c-10.716 3.151-25.528 10.081-35.403 16.381-13.446 8.716-20.8 12.286-31.305 15.121l-10.506 2.836-36.032-0.21c-55.153-0.315-63.347 1.575-92.131 21.001-12.081 8.086-23.111 13.441-35.718 17.221-12.396 3.781-14.917 7.351-8.929 12.391 1.681 1.47 5.673 3.255 8.824 3.99 5.463 1.155 6.408 1.05 16.073-1.995 16.809-5.355 28.364-10.816 42.861-20.371 7.564-4.936 16.284-10.396 19.435-12.181 9.98-5.46 14.497-5.985 55.257-5.67 29.1 0.21 39.08 0 46.854-1.26 19.119-3.151 31.725-8.086 47.483-18.902 12.606-8.505 24.792-14.491 35.823-17.536 4.622-1.26 9.034-2.73 9.77-3.36 2.416-1.89 0.945-5.356-3.467-7.771-5.883-3.36-16.913-3.255-28.889 0.315z" fill="#2F4156"/>
<path d="m962.51 775.84c-13.131 3.256-31.83 10.711-47.063 18.797-34.247 18.166-44.647 21.106-86.353 24.046-50.74 3.571-65.447 6.616-85.722 17.746-12.922 7.141-32.251 20.477-33.092 22.892-2.101 6.72 14.182 14.281 23.532 11.026 2.101-0.84 11.136-6.196 19.96-11.971 16.703-11.026 27.103-15.751 41.18-18.796 3.782-0.735 20.275-2.31 36.769-3.571 53.891-3.78 69.649-7.665 101.9-25.201 15.022-8.086 34.142-16.591 44.647-19.847 8.089-2.52 9.98-3.78 9.98-6.3 0-6.09-15.338-11.341-25.738-8.821z" fill="#2F4156"/>
<path d="m431.99 891.98c-1.68 0.84-4.727 2.835-6.723 4.515-3.572 2.94-3.992 3.045-14.812 3.045-10.821 0-11.346 0.105-15.128 3.15-9.98 7.876-9.665 7.771-17.859 7.141-9.349-0.735-13.656 0.525-20.275 6.09l-5.042 4.2-10.505-0.63c-8.615-0.63-11.346-0.42-14.708 0.945-9.034 3.781-12.501 10.711-7.878 15.332 1.155 1.155 5.357 3.675 9.349 5.67 8.825 4.515 10.61 6.195 10.61 10.081 0 3.99 3.362 11.55 6.409 14.281 1.365 1.26 5.042 3.045 8.089 4.095 6.303 1.995 8.089 4.2 9.034 11.026 1.156 7.665 4.622 12.705 11.136 15.961 7.038 3.465 8.404 5.255 8.404 10.815 0 9.24 8.614 16.07 21.535 17.12 7.564 0.52 10.401-0.32 19.54-5.78 4.202-2.52 7.984-3.88 13.132-4.62 10.295-1.36 13.551-2.73 18.909-7.35l4.727-4.09 10.295 0.63c11.976 0.84 16.599-0.74 20.38-6.62 2.942-4.516 4.728-4.936 11.346-3.046 10.925 3.256 19.12 1.681 24.477-4.725 2.416-2.835 2.837-4.2 2.416-7.56-0.735-5.041-3.361-7.981-11.24-12.181-7.774-4.2-8.719-5.461-8.825-11.761-0.105-4.41-0.63-5.67-3.781-8.716-1.996-2.1-6.934-5.04-10.926-6.615-7.774-3.15-8.614-3.99-9.56-10.081-0.84-5.25-7.353-12.391-13.971-15.436-7.459-3.465-8.615-4.83-8.615-10.395 0-6.406-1.681-8.611-9.454-12.076-7.669-3.466-16.073-4.411-20.486-2.415z" fill="#2F4156"/>
<path d="m594.5 591-76 26.5-142.5 3-85.5-15.5-35-9-136 81.5-78 15.5-35-11.5v-18.5l156.5-140.5-62.5-20.5 114.5-111.5 215.5-184.5 28-50 28-56 49-43 46.5-22h63l57.5 22 44.5 43 23.5 66.5 64 56-87.5 27v65l31.5 13 95.5 77 25.5 40.5v21l-25.5 9.5-63-20-16 79.5h-54l-56-20-90.5 76z" fill="#FFD44D"/>
<path d="m640.27 132.76c-20.667 6.667-28 31.067-14.134 47.2 18.134 21.2 52.534 9.2 52.534-18.267 0-20-19.734-34.933-38.4-28.933z" fill="#2F4156"/>
<path d="m793.33 20.764c-3.866 2.1333-19.6 20.133-22.933 26.4-3.2 5.8667-3.067 9.6 0.667 13.733 2.266 2.6667 4.4 3.6 8.133 3.7334 4.8 0.1333 5.867-0.6667 15.6-10.8 16.8-17.333 19.467-24.267 12.4-31.467-4-3.8667-8.667-4.4-13.867-1.6z" fill="#2F4156"/>
<path d="m822.13 84.364c-8 2.8-15.6 6.1334-16.933 7.3334-5.867 5.3333-3.6 16 4 19.2 3.6 1.467 5.6 1.067 20.4-4.133 18.133-6.4 23.733-10.4 23.733-16.933 0-2.1333-1.2-5.4667-2.8-7.4667-3.866-4.9333-10.666-4.5333-28.4 2z" fill="#2F4156"/>
<mask id="a" x="-145" y="-113" width="1251" height="955" style="mask-type:alpha" maskUnits="userSpaceOnUse">
<path d="m859 526.5 54-15.5 90.5 94.5 98.5-499.5-59.5-97.5-320.5-27-157-50-289.5-40.5-332 710.5-82.5 144.5 505-76.5 54-11 57-14 20.5-3.5 75-15.5 129-65h59l-30.5 68-58.5 49-28 88 45 71.5 115.5-123v-64.5l27.5-69 27.5-54z" fill="#D9D9D9" stroke="#000" stroke-width="6"/>
</mask>
<g mask="url(#a)">
<path d="m600.67 20.638c-26.4 3.4667-56.134 15.733-79.334 32.4-11.466 8.2667-32.133 30-40.266 42.267-11.467 17.333-16.134 26.666-26.4 52.666-9.867 24.934-16.134 37.6-23.067 46.667-9.6 12.667-24.8 26.267-50.933 45.867-45.2 34-89.067 70.8-136 114.13-28.534 26.267-108.27 102-132.4 125.47-18.8 18.4-20.267 20.266-20.267 24.666 0 6.534 4.1334 11.467 11.067 13.334 3.066 0.8 15.733 3.466 28 5.733l22.4 4.267-25.734 21.2c-33.866 27.866-102.13 85.866-112.67 95.733-10.267 9.6-15.067 18.8-15.067 28.533 0 14.8 8 21.867 29.733 26.534 11.733 2.4 38.533 2.4 52.667-0.134 43.2-7.6 84.267-25.866 140.27-62.666 11.333-7.467 26-17.467 32.4-22.4l11.733-8.934 25.6 7.867c22.533 6.933 47.6 13.6 64.267 17.067 5.066 1.066 6.133 2.266 17.733 19.466 6.933 10.134 12.267 18.667 12 18.934-0.667 0.666-77.867 18-139.73 31.333-46.8 10-75.867 16.667-100.27 22.933-22.8 5.867-31.2 23.067-20.133 40.8 3.733 6 47.733 65.334 135.07 182.27 23.067 30.8 44.534 58.932 47.867 62.402 7.733 8.26 14.8 12.26 24.933 14.26 10.8 2.14 15.867 1.07 98.267-19.46 83.867-20.935 257.6-64.135 334.93-83.202 233.07-57.6 334.14-83.2 340.14-85.867 23.46-10.8 26.66-31.066 7.6-48.933-13.07-12.533-254.14-204.93-260.67-208.27-2.8-1.333-7.467-2.8-10.4-3.2s-5.333-0.933-5.333-1.2c0-0.533 23.2-53.333 30.933-70.533l7.333-16 10.934 0.533c15.6 0.667 25.466-4 30.933-14.8 5.867-11.6 0.134-33.6-12.8-48.666l-4.4-5.2 4.134-6.667c4.399-7.067 24.8-50 31.066-65.333l3.867-9.467 4.8 0.533c3.733 0.534 5.6 0 7.467-1.866 6.533-6.534 87.336-207.47 98.266-244.4 6.27-20.933-1.2-38.933-20-48.133-16.27-8-34.933-5.0667-46.933 7.1999-5.467 5.6-11.467 16.267-32.934 57.6-6.533 12.4-16.266 31.067-21.733 41.334-30.933 58-68.8 135.07-70.533 143.47-0.533 3.067 0 4.534 3.333 7.6l3.867 3.734-8.267 18.266c-4.667 10.134-9.6 21.467-11.2 25.067l-2.8 6.8-10-8.267c-15.6-12.8-34.533-24.8-52.933-33.733-19.734-9.6-19.067-8.667-18.934-31.6 0-10.533 0.667-15.6 2.667-20.533l2.533-6.667 12.667-2.267c18.267-3.2 39.467-8.533 59.2-14.666 19.734-6.134 24.8-9.867 24.8-17.6 0-8.134-4.667-12.667-28-27.334-12.133-7.6-27.466-17.866-34-22.933l-12-9.067-1.6-10.133c-4.667-28.8-20.667-59.867-42.8-82.4-17.867-18.267-35.6-28.933-64.267-38.533-8.666-2.8-21.6-6.1334-28.8-7.2-13.866-2.1334-38.4-2.4001-51.866-0.6667zm52.133 26c14.267 2.2666 29.6 7.2 42.533 13.6 33.067 16.533 57.867 47.867 67.467 85.333 4.267 16.934 4 18.267-6.667 29.067-5.2 5.067-11.466 12.933-14.133 17.333-12.4 20.667-13.733 46.267-3.2 57.467 2.667 2.8 2.667 3.2 0.667 13.867-2.667 13.6-2.667 23.333-0.134 41.333 3.067 20.8 4 55.867 2.134 71.467-5.867 47.2-24.667 91.333-54.134 126.67-64.666 77.467-162.93 118.13-269.33 111.33-46.667-3.067-80.933-9.6-123.2-23.6-32.4-10.8-26.8-11.867-60.8 11.733-42.267 29.2-86.8 53.333-117.33 63.6-36.534 12.267-72.267 15.333-90.4 7.733l-3.8667-1.6 2.9333-3.733c6.5334-8.133 81.867-73.2 134.67-116.27 10.667-8.666 20.267-16.533 21.333-17.466 1.6-1.334 5.2-1.2 20 0.8 39.6 5.466 63.067 6.933 100 6.266 26.934-0.533 39.734-1.333 54-3.466 57.6-8.934 99.867-24.934 134.4-50.934 40.667-30.533 66.934-73.2 73.734-119.87 4.133-28.267-0.667-67.734-9.067-75.067-6.267-5.333-17.067-0.133-17.067 8.267 0 2.133 1.2 9.2 2.8 15.733 2.4 10 2.667 14.4 2.134 30.4-0.8 20.4-3.467 33.867-10.267 50.933-18.533 46.267-62.933 83.467-122.67 102.8-18.4 6-33.466 9.334-62.666 13.867-27.6 4.267-83.067 4.267-118 0-23.6-2.933-98.134-14.667-99.2-15.733-2-1.867 116.67-115.33 169.87-162.53 32.8-29.2 66.267-55.733 95.334-76 47.066-32.666 63.333-52.933 81.333-100.67 11.867-31.734 22.267-49.6 39.467-67.867 24.133-25.733 52.933-40.4 89.866-46 8.667-1.2 36.534-0.5334 47.467 1.2zm141.33 145.73c5.067 3.6 14 9.734 19.867 13.734s10.667 7.733 10.667 8.533c0 2-22 8.4-43.6 12.667-27.067 5.466-25.6 5.733-24.667-3.734 0.8-8.8 5.467-20.266 11.067-26.8 4.8-5.866 13.866-12.4 16-11.6 0.8 0.267 5.6 3.6 10.666 7.2zm3.334 156.93c37.2 25.2 68.533 56.8 89.733 90.666 12.267 19.334 12.667 24.134 2.133 23.734-14.666-0.667-38.933-10.4-60.666-24.4-11.6-7.6-13.2-8.267-18.133-7.6-10.267 1.333-13.601 8.133-9.867 20.133l2.266 7.2-5.866 11.867c-3.2 6.4-6.267 13.2-6.8 14.8-0.8 3.2-0.8 3.2-12.533-3.2-9.334-4.934-12.534-6.134-15.467-5.334-5.733 1.334-8.934 5.467-8.934 11.2 0 6.134 3.334 9.734 16.401 17.067 4.933 2.8 8.933 5.733 8.933 6.4 0 0.8-1.6 4.533-3.467 8.4-3.2 6.133-4 6.8-7.067 6.4-16.133-2.667-29.333-5.6-39.466-8.933-18.667-6.267-18-4.267-7.067-20.8 29.733-44.8 44.933-94.534 45.067-146.67v-18.933l8 4c4.4 2.266 14.666 8.533 22.8 14zm-85.467 188.13c12.933 4.933 40.8 12.533 46.4 12.533 1.733 0 2.933 0.534 2.667 1.2-6.267 16.267-16.934 38-19.067 38.934-1.466 0.666-47.6 11.466-102.4 23.866-68.533 15.6-100.53 22.267-102 21.467-1.333-0.667-3.467-2.4-4.8-3.867-2.4-2.8-2.267-2.8 5.333-4.933 54.134-14.933 104-43.2 142.53-80.933 8.933-8.8 15.466-14.134 16.666-13.867 1.067 0.4 7.734 2.8 14.667 5.6zm131.73 62.8c3.599 2.133 19.333 13.867 34.933 26.4 199.33 159.07 218.4 174.67 221.33 179.73 1.73 3.2 1.73 3.734-0.13 5.6-2.54 2.534-7.34 3.734-322.54 81.334-83.466 20.533-283.2 70.133-388 96.266-28.4 7.067-37.466 8.934-46.133 8.934-9.067 0.133-11.467-0.267-13.733-2.4-6.667-6.134-182.8-243.33-182.8-246.27 0-2.8-8.4-0.667 106.67-25.867 185.6-40.533 266.8-58.4 339.33-74.666 40.4-9.067 87.866-19.734 105.73-23.734 20.4-4.533 32.267-6.666 32.267-5.733 0 0.8-4.134 10-9.2 20.4-10.267 20.8-10.4 21.467-16.134 60.4-5.333 36-6.133 41.2-9.6 54.8-4 16.4-1.733 22.533 8.4 22.533 6.534 0 8.4-1.866 43.467-42.133 36.4-41.733 38-43.867 45.333-60.8 16.134-37.6 32.4-72.667 34.934-75.467 3.466-3.866 7.733-3.733 15.867 0.667zm-332.67 37.6 2.266 3.867-14.933 3.466c-38.533 8.8-81.867 18.134-84 18.134-1.467 0-5.467-4.667-11.067-12.934-4.666-7.066-8.4-13.066-8.266-13.066 0.133-0.134 6 0.266 12.933 0.933 16.267 1.6 69.467 0.267 83.333-2.133 16.267-2.667 17.067-2.667 19.734 1.733z" fill="#2F4156"/>
</g>
</svg>