<?xml version="1.0" encoding="UTF-8"?>
<svg viewBox="0 0 804 663" xmlns="http://www.w3.org/2000/svg">
<path d="m653.14 623.17c-12.629 12.678-34.495 14.305-48.448-2.345-5.785-6.903-12.408-13.167-17.21-20.809-4.287-6.823-10.764-8.059-17.649-7.69-7.376 0.396-14.74 1.595-22.033 2.881-18.918 3.335-42.586-11.449-40.618-37.257 0.624-8.171 1.362-16.335 2.217-24.484 0.681-6.485-1.911-11.642-5.866-16.462-4.966-6.052-11.321-10.549-17.09-15.705-3.299-2.95-6.62-5.89-9.726-9.038-12.547-12.713-13.006-28.969-1.011-42.349 7.411-8.266 16.339-14.935 24.832-22 7.886-6.561 9.961-14.553 8.52-24.113-1.059-7.028-1.817-14.072-1.717-21.21 0.335-23.787 17.617-38.199 41.175-34.376 7.313 1.187 14.684 2.029 22.039 2.945 7.063 0.881 12.545-1.5 16.676-7.539 5.622-8.218 11.742-16.093 17.447-24.256 8.647-12.372 28.794-17.827 43.493-5.099 8.088 7.002 13.459 16.308 20.112 24.528 1.49 1.841 2.907 3.755 4.213 5.731 4.006 6.061 9.623 7.357 16.523 6.49 9.686-1.215 19.232-3.569 29.076-3.56 19.331 0.017 33.462 13.948 33.929 33.33 0.217 9.026-0.369 18.001-1.168 26.965-0.805 9.036 2.392 15.755 9.944 21.026 9.297 6.49 19.096 12.476 26.144 21.742 10.161 13.358 9.329 28.633-2.376 40.711-6.286 6.487-13.473 11.959-20.254 17.891-6.173 5.399-12.779 10.649-13.939 19.603-0.806 6.23 1.121 12.197 2.193 18.232 1.672 9.419 2.063 18.527-1.356 27.941-4.427 12.185-18.964 20.013-29.989 20.772-10.001 0.689-19.746-2.013-29.58-3.332-7.206-0.966-12.892 0.454-17.445 6.613-6.297 8.519-13.527 16.293-21.058 24.223z" fill="#FFD44D"/>
<path d="m606.13 14.883c18.666-5.0966 36.986-9.7569 55.715-12.94 23.706-4.0286 44.087 0.52779 59.361 20.258 7.304 9.4344 10.301 20.836 13.075 32.16 8.776 35.813 15.896 72.011 25.04 107.74 10.255 40.074 18.871 80.511 26.526 121.16 0.245 1.302 0.412 2.632 0.46 3.955 0.284 7.827-3.006 12.585-9.409 13.693-6.391 1.106-11.82-2.657-13.552-10.346-5.218-23.172-9.846-46.48-15.229-69.613-7.685-33.02-15.937-65.907-23.75-98.897-5.092-21.501-9.791-43.095-14.774-64.622-0.935-4.04-2.217-8.0203-3.618-11.928-5.047-14.079-17.658-21.532-32.543-20.022-15.299 1.5522-30.09 5.2995-44.867 9.2646-76.508 20.529-151.9 44.777-227.56 68.151-77.882 24.062-156.32 46.113-235.53 65.385-31.5 7.664-62.79 16.173-94.448 23.21-9.5809 2.129-18.924 5.123-27.039 11.157-15.86 11.793-21.261 27.684-18.158 46.63 5.995 36.604 15.742 72.383 24.57 108.35 11.923 48.575 21.784 97.586 31.92 146.55 7.1705 34.637 14.585 69.225 22.161 103.78 5.372 24.5 21.908 34.484 47.032 28.075 25.494-6.502 50.383-15.018 74.907-24.542 44.714-17.365 90.437-31.716 136.25-45.797 15.585-4.79 31.193-9.501 46.794-14.236 1.909-0.58 3.812-1.252 5.768-1.59 6.396-1.106 11.588 1.812 13.589 7.487 2.097 5.947 0.01 12.072-5.913 14.783-5.261 2.408-10.918 3.999-16.479 5.696-52.997 16.174-105.97 32.434-157.94 51.74-27.608 10.256-55.027 21.084-83.691 28.166-13.098 3.236-26.332 6.2-39.897 2.966-24.644-5.874-38.983-21.797-44.169-46.246-11.72-55.253-23.307-110.54-35.005-165.79-9.5691-45.204-20.892-90.002-31.421-134.98-4.9585-21.184-10.853-42.246-13.216-63.895-3.2239-29.538 5.9388-55.422 37.469-72.623 14.047-7.664 29.7-10.562 45.022-14.382 84.354-21.033 168.97-41.092 252.18-66.458 62.537-19.063 125.05-38.213 187.62-57.148 27.381-8.2852 54.894-16.131 82.737-24.288z" fill="#2F4156"/>
<path d="m655.18 633.2c-13.307 13.361-36.346 15.075-51.047-2.471-6.095-7.274-13.074-13.876-18.133-21.929-4.517-7.19-11.341-8.493-18.595-8.104-7.773 0.417-15.532 1.681-23.215 3.036-19.933 3.514-44.871-12.065-42.797-39.263 0.657-8.61 1.435-17.214 2.336-25.802 0.717-6.833-2.014-12.268-6.181-17.348-5.232-6.378-11.929-11.117-18.006-16.55-3.476-3.109-6.976-6.207-10.248-9.524-13.22-13.398-13.704-30.529-1.066-44.629 7.809-8.711 17.216-15.739 26.164-23.185 8.31-6.914 10.496-15.336 8.978-25.41-1.116-7.407-1.915-14.83-1.809-22.352 0.352-25.067 18.561-40.255 43.383-36.226 7.705 1.25 15.471 2.137 23.221 3.103 7.442 0.928 13.218-1.58 17.571-7.945 5.923-8.66 12.372-16.959 18.382-25.561 9.111-13.039 30.338-18.787 45.826-5.374 8.522 7.379 14.181 17.186 21.191 25.848 1.57 1.941 3.063 3.958 4.439 6.04 4.22 6.387 10.139 7.753 17.409 6.84 10.206-1.281 20.263-3.762 30.636-3.753 20.367 0.018 35.257 14.699 35.748 35.125 0.229 9.512-0.388 18.97-1.23 28.416-0.848 9.522 2.52 16.603 10.477 22.158 9.797 6.84 20.12 13.148 27.547 22.913 10.706 14.077 9.829 30.174-2.504 42.902-6.623 6.836-14.195 12.603-21.34 18.853-6.504 5.691-13.465 11.223-14.686 20.659-0.85 6.565 1.18 12.853 2.309 19.214 1.763 9.926 2.175 19.524-1.428 29.444-4.664 12.841-19.981 21.091-31.598 21.891-10.537 0.726-20.804-2.122-31.166-3.511-7.593-1.018-13.584 0.477-18.381 6.968-6.634 8.978-14.252 17.171-22.187 25.527zm-59.544-272c-5.654 4.905-12.251 6.927-19.705 7.232-11.906 0.487-23.528-1.33-35.172-3.327-9.887-1.696-18.825 6.612-17.244 16.466 1.055 6.575 1.748 13.177 2.483 19.772 1.665 14.936-0.818 28.46-13.229 38.772-8.574 7.124-16.926 14.54-25.032 22.192-7.804 7.366-7.512 12.983 0.643 20.08 6.905 6.01 14.064 11.726 21.035 17.662 7.361 6.267 13.355 13.46 15.37 23.3 1.855 9.056 1.914 18.157 1.086 27.317-0.553 6.119-1.898 12.176-1.591 18.361 0.376 7.589 5.695 13.076 13.226 12.561 9.588-0.655 19.091-2.613 28.681-3.187 13.247-0.793 25.595 1.725 34.326 13.091 6.399 8.33 13.185 16.319 20.418 23.932 7.324 7.709 13.643 7.497 20.589-0.601 6.935-8.085 13.916-16.132 20.884-24.19 9.037-10.449 20.32-14.187 34.003-12.292 7.565 1.048 15.108 2.284 22.69 3.204 14.619 1.775 21.859-5.934 19.291-20.416-0.058-0.326-0.192-0.638-0.264-0.963-2.146-9.635-3.075-19.378-2.421-29.238 0.577-8.708 3.313-16.5 9.448-23.019 8.6-9.138 18.609-16.645 28.056-24.804 9.629-8.316 9.856-14.252 0.74-23.246-1.297-1.279-2.748-2.427-4.241-3.476-5.585-3.925-11.161-7.87-16.845-11.65-11.813-7.854-17.41-18.926-17.152-32.98 0.199-10.812 0.841-21.618 0.89-32.429 0.042-9.204-5.217-14.21-14.33-14.236-2.321-6e-3 -4.708 0.056-6.954 0.571-10.462 2.401-21.05 3.005-31.734 2.674-5.987-0.185-11.415-1.882-16.323-5.386-5.271-3.762-8.744-9.088-12.607-14.079-5.602-7.24-10.365-15.135-16.665-21.825-5.334-5.664-11.931-5.296-16.709 0.752-1.857 2.352-3.548 4.834-5.394 7.195-6.655 8.511-11.821 18.166-20.247 26.21z" fill="#2F4156"/>
<path d="m678.86 194.1c-27.877 6.619-55.347 13.166-82.837 19.623-3.513 0.825-7.008 1.829-10.791 0.783-5.484-1.517-9.119-4.746-10.476-10.244-8.037-32.562-16.072-65.124-23.968-97.72-2.229-9.2004 0.666-14.76 9.087-16.865 33.994-8.4976 68.029-16.834 102.1-25.041 7.693-1.8534 12.426 1.2841 14.333 9.1022 3.579 14.677 6.909 29.415 10.348 44.126 4.307 18.425 8.655 36.841 12.916 55.277 2.103 9.099-1.394 15.305-10.201 18.147-3.315 1.07-6.733 1.817-10.506 2.812z" fill="#2F4156"/>
<path d="m332.01 359.13c-18.898 11.06-38.71 11.73-59.303 7.892-11.266-2.1-22.251-5.762-33.715-6.616-18.001-1.343-33.456 5.722-48.089 15.292-16.941 11.08-34.553 20.746-54.622 25.031-2.928 0.625-5.846 1.288-8.869 0.907-5.751-0.723-9.236-4.198-10.07-10.016-0.698-4.859 1.934-9.458 6.732-11.662 1.054-0.485 2.158-0.947 3.288-1.168 18.222-3.57 33.913-12.532 48.994-22.844 16.364-11.191 34.16-18.635 54.14-19.975 9.212-0.618 18.264 0.935 27.151 3.193 11.293 2.871 22.628 5.481 34.285 6.203 9.204 0.57 17.95-1.487 25.758-6.38 10.442-6.544 20.629-13.493 30.94-20.246 12.842-8.411 27.23-13.166 41.803-17.389 5.947-1.723 11.801 1.584 14.077 7.382 2.192 5.585 0.161 11.64-5.09 14.66-1.713 0.985-3.604 1.807-5.519 2.269-16.667 4.022-31.139 12.385-44.904 22.271-5.405 3.881-11.103 7.353-16.987 11.196z" fill="#2F4156"/>
<path d="m362.26 209.03c3.958 7.792 2.771 13.042-3.934 17.549-13.26 8.913-26.407 18.05-40.887 24.935-13.693 6.512-28.15 9.829-43.384 9.904-10.998 0.054-21.971-0.248-32.924-1.144-23.458-1.92-45.227 3.681-65.795 14.637-20.614 10.981-41.631 20.936-64.629 25.969-5.006 1.095-9.697 0.73-13.176-3.593-3.085-3.832-3.6914-8.106-1.5511-12.619 1.4211-2.997 3.6436-5.238 6.9166-6.053 23.804-5.931 45.253-17.385 66.977-28.264 23.441-11.738 48.412-16.376 74.499-14.433 6.313 0.47 12.629 0.45 18.92 0.959 20.888 1.689 39.84-3.765 57.313-15.074 8.245-5.336 16.571-10.556 24.984-15.623 6.443-3.88 11.179-3.016 16.671 2.85z" fill="#2F4156"/>
<path d="m206.06 475.03c-16.783 5.35-29.286 16.239-41.097 28.13-1.055 1.062-1.963 2.277-3.062 3.287-4.955 4.554-11.336 5.036-15.881 1.261-4.902-4.073-6.229-11.468-1.698-16.612 17.814-20.225 38.089-37.026 65.868-41.149 11.777-1.748 23.517 0.945 35.1 3.242 8.238 1.634 16.512 2.009 24.821 1.167 11.094-1.126 20.08-6.581 27.963-14.154 2.407-2.312 4.859-4.697 8.285-5.326 4.557-0.837 8.642 0.131 11.582 4.036 3.11 4.132 3.359 10.036 0.395 14.549-4.411 6.715-10.96 11.16-17.586 15.277-13.628 8.465-28.76 10.562-44.54 9.949-11.375-0.442-22.33-3.281-33.477-5.019-5.518-0.861-10.939-0.226-16.673 1.362z" fill="#2F4156"/>
<path d="m595.57 530.4c-7.346-8.118-14.43-15.991-21.543-23.837-5.795-6.392-11.731-12.659-17.414-19.149-6.568-7.502-7.494-18.842-2.438-26.683 5.271-8.177 18.131-8.765 25.257-2.043 7.671 7.236 13.032 16.316 20.307 23.737 5.785 5.902 10.558 12.618 16.124 18.975 5.192-3.83 6.786-9.764 10.353-14.24 8.073-10.129 15.596-20.707 23.087-31.228 7.888-11.079 16.085-21.995 23.369-33.521 3.344-5.29 6.209-10.944 12.582-13.667 7.399-3.162 20.36 0.981 23.716 8.263 3.753 8.141 3.194 16.394-1.893 23.606-17.937 25.427-36.225 50.607-54.343 75.907-4.356 6.082-8.687 12.188-12.826 18.417-11.487 17.29-29.882 15.174-40.586-0.101-1.059-1.512-2.066-3.01-3.752-4.436z" fill="#2F4156"/>
</svg>