<svg width="500" height="500" viewBox="0 0 500 500" fill="none" xmlns="http://www.w3.org/2000/svg">
<path d="M169.23 81.6523C173.119 82.1404 174.517 83.8466 177.312 86.5625C178.379 87.5834 179.445 88.6043 180.512 89.625C181.359 90.4487 181.359 90.4487 182.224 91.2891C184.031 93.0294 185.863 94.7368 187.707 96.4375C195.133 103.296 202.402 110.301 209.562 117.438C210.3 118.17 211.038 118.903 211.797 119.658C216.403 124.277 220.75 129.055 225 134C225.897 135.008 226.795 136.014 227.695 137.02C233.11 143.243 237.056 149.236 240 157C240.522 158.183 240.522 158.183 241.055 159.391C242.187 162.517 242.66 165.522 243.125 168.812C243.376 170.555 243.376 170.555 243.633 172.332C243.754 173.212 243.875 174.093 244 175C245.017 174.056 245.017 174.056 246.055 173.094C259.519 160.711 271.294 150.139 290.523 149.969C303.766 150.543 311.852 154.427 321 164C327.66 171.566 327.66 171.566 328 177C328.58 177.112 329.159 177.225 329.756 177.341C332.224 178.066 333.809 179.057 335.898 180.547C336.625 181.062 337.353 181.578 338.102 182.109C339.227 182.921 339.227 182.921 340.375 183.75C341.118 184.276 341.86 184.802 342.625 185.344C354.797 194.032 354.797 194.032 355.562 197.688C355 200 355 200 352 202C348.628 202.811 345.241 203.463 341.836 204.121C340.432 204.556 340.432 204.556 339 205C338.67 205.99 338.34 206.98 338 208C339.053 207.685 340.106 207.371 341.191 207.047C349.562 204.559 357.945 202.183 366.391 199.965C369.921 199.021 373.429 198.02 376.938 197C381.646 195.641 386.363 194.404 391.125 193.25C398.812 191.382 406.4 189.193 414 187C430.41 182.281 430.41 182.281 437.312 180.5C438.464 180.201 439.615 179.902 440.801 179.594C444.356 178.934 447.396 178.621 451 179C453.701 181.838 454.645 184.59 455.578 188.348C455.848 189.415 456.119 190.481 456.397 191.581C456.819 193.304 456.819 193.304 457.25 195.062C457.867 197.509 458.484 199.956 459.102 202.402C459.415 203.659 459.729 204.916 460.052 206.21C461.548 212.189 463.083 218.158 464.625 224.125C464.916 225.255 465.208 226.384 465.508 227.548C467.307 234.475 469.228 241.35 471.295 248.201C472.874 253.465 474.248 258.76 475.541 264.1C476.359 267.472 477.219 270.823 478.172 274.16C478.363 274.836 478.553 275.512 478.75 276.208C479.28 278.072 479.821 279.933 480.363 281.793C481.006 285.032 481.115 286.908 480 290C476.525 292.316 473.104 293.242 469.125 294.312C468.333 294.53 467.54 294.747 466.724 294.971C460.721 296.594 454.683 298.035 448.625 299.438C440.699 301.273 432.936 303.448 425.162 305.84C418.245 307.959 411.289 309.732 404.258 311.442C392.773 314.28 381.332 317.32 369.938 320.5C368.879 320.794 368.879 320.794 367.8 321.094C363.62 322.259 359.447 323.446 355.277 324.645C353.31 325.201 351.343 325.757 349.375 326.312C348.462 326.579 347.55 326.846 346.609 327.121C341.216 328.632 336.601 329.281 331 329C328.398 321.605 326.325 314.095 324.254 306.539C323.212 302.742 322.113 298.964 321 295.188C319.081 288.52 317.506 281.788 315.928 275.033C314.037 267.003 311.851 259.074 309.6 251.139C308.003 245.443 306.51 239.719 305 234C302.541 236.459 302.235 238.192 301.336 241.539C300.866 243.234 300.866 243.234 300.387 244.964C300.053 246.172 299.719 247.38 299.375 248.625C296.26 259.475 292.731 269.285 287 279C286.659 279.601 286.318 280.201 285.966 280.82C273.802 302.084 254.883 315.295 231.453 322.152C221.056 324.705 210.669 325.324 200 325C199.841 325.548 199.683 326.096 199.52 326.66C198.7 329.446 197.851 332.223 197 335C196.648 336.17 196.296 337.341 195.934 338.547C191.819 351.638 186.779 363.956 175 372C171.875 372.938 171.875 372.938 169 373C167.062 371.812 167.062 371.812 166 370C166.241 367.141 166.796 366.181 168.961 364.254C169.758 363.696 170.554 363.138 171.375 362.562C174.813 360.027 177.193 357.976 179 354C177.721 354.206 176.442 354.412 175.125 354.625C172.945 354.977 172.945 354.977 171 355C169 353 169 353 168.5 350.625C169 348 169 348 171.375 345.938C173.401 344.689 175.095 343.976 177.414 343.391C182.481 342.034 182.481 342.034 186.036 338.356C188.116 334.052 189.603 329.564 191 325C189.26 323.26 186.806 323.628 184.438 323.438C183.426 323.354 182.414 323.27 181.371 323.184C180.589 323.123 179.806 323.062 179 323C177.798 324.964 176.596 326.928 175.394 328.893C174.376 330.556 173.356 332.219 172.334 333.881C169.779 338.044 167.307 342.228 164.938 346.5C160.318 354.207 152.587 362.709 144 366C138.811 365.811 138.811 365.811 137 364C136.625 361.625 136.625 361.625 137 359C138.938 357.562 138.938 357.562 142 356C143.534 355.064 145.054 354.103 146.562 353.125C147.678 352.417 147.678 352.417 148.816 351.695C151.555 349.705 151.555 349.705 155 345C150.38 345.33 145.76 345.66 141 346C139 343 139 343 139 340.938C140 339 140 339 142.438 337.875C154.775 334.845 154.775 334.845 161 335C161.383 334.203 161.383 334.203 161.773 333.391C163.285 330.444 164.949 327.606 166.625 324.75C167.257 323.672 167.888 322.595 168.539 321.484C169.262 320.255 169.262 320.255 170 319C169.18 318.867 168.36 318.734 167.516 318.598C165.899 318.333 165.899 318.333 164.25 318.062C163.183 317.888 162.115 317.714 161.016 317.535C158.633 317.112 156.341 316.596 154 316C147.429 314.957 144.264 316.072 138.75 319.812C127.476 328.039 117.223 337.53 107 347C105.171 348.693 103.338 350.38 101.5 352.062C100.727 352.775 99.9531 353.488 99.1562 354.223C94.8956 357.735 91.4283 358.628 85.9648 358.5C68.7858 355.603 49.9767 338.977 38 327C37.9592 325 37.9575 323 38 321C45.7812 316.877 53.7887 313.6 62 310.438C64.4168 309.499 66.8334 308.56 69.25 307.621C70.4052 307.173 71.5603 306.726 72.7505 306.264C102.716 294.604 128.128 282.142 151 259C149.585 258.346 149.585 258.346 148.141 257.68C144.747 256.109 141.362 254.521 137.979 252.927C136.266 252.124 134.546 251.336 132.824 250.551C116.789 242.978 101.755 231.941 95 215C94.737 214.165 94.4741 213.329 94.2031 212.469C91.9444 205.565 88.4979 202.625 82.7578 198.285C76.3832 193.003 72.2832 185.516 69 178C68.6352 177.232 68.2704 176.463 67.8945 175.672C66.8277 172.485 66.938 169.916 67 166.562C66.6124 159.296 64.14 155.563 59.8069 150.059C52.9453 141.306 50.8904 131.751 50.75 120.75C50.7242 119.528 50.6984 118.306 50.6719 117.047C50.7802 116.041 50.8884 115.036 51 114C54 112 54 112 56.394 112.218C59.1105 113.033 61.2508 114.079 63.6953 115.512C64.577 116.023 65.4587 116.534 66.3672 117.061C67.2773 117.597 68.1873 118.134 69.125 118.688C81.7402 126.049 94.5882 132.927 107.5 139.75C108.251 140.147 109.002 140.544 109.776 140.953C112.796 142.549 115.815 144.145 118.835 145.74C122.89 147.882 126.941 150.031 130.988 152.188C139.546 156.739 148.131 161.083 157 165C156.759 164.16 156.759 164.16 156.513 163.303C155.566 159.051 155.773 154.714 155.75 150.375C155.729 149.428 155.709 148.48 155.688 147.504C155.655 141.585 156.485 136.766 158.359 131.162C159.154 128.482 159.128 126.375 158.688 123.625C156.866 109.049 158.388 95.815 166 83C167 82 167 82 169.23 81.6523Z" fill="#2F4256"/>
<path d="M61 126C68.4915 129.637 75.8633 133.424 83.125 137.5C117.144 156.571 151.861 174.359 187.207 190.837C200.746 197.164 214.678 203.739 224.812 215.062C225.534 215.702 226.256 216.341 227 217C229.76 216.95 229.76 216.95 232 216C232.856 213.715 232.856 213.715 233 211C231.38 208.729 231.38 208.729 229.062 206.812C227.68 205.572 226.319 204.307 225 203C225 202.34 225 201.68 225 201C226.844 199.512 226.844 199.512 229.5 197.688C240.163 190.12 250.184 181.743 259.836 172.93C269.973 163.891 278.864 159.572 292.582 159.727C301.62 160.45 309.078 164.124 315 171C320.523 179.154 321.824 186.198 321 196C319.55 202.673 314.487 206.426 309.573 210.725C298.692 220.426 294.222 233.877 290 247.438C282.031 273.007 269.514 294.916 245 308C240.406 309.924 235.768 311.562 231 313C229.844 313.367 228.687 313.735 227.496 314.113C221.202 315.632 214.688 315.393 208.25 315.375C207.218 315.375 207.218 315.375 206.166 315.374C192.552 315.333 180.174 313.325 167.102 309.621C166.297 309.393 165.492 309.165 164.663 308.93C163.161 308.496 161.663 308.045 160.171 307.575C154.142 305.752 148.241 304.899 142.172 306.961C130.672 313.676 120.769 322.009 111 331C109.054 332.711 107.097 334.408 105.133 336.098C103.487 337.566 101.886 339.084 100.305 340.621C99.3585 341.53 98.4123 342.439 97.4375 343.375C96.1362 344.655 96.1362 344.655 94.8086 345.961C91.4071 348.43 89.1778 348.891 85 349C82.5664 348.223 82.5664 348.223 80.5625 347.062C79.8832 346.682 79.2038 346.302 78.5039 345.91C78.0076 345.61 77.5113 345.309 77 345C78.2787 341.164 79.6293 340.771 83.0625 338.75C90.7026 334.176 90.7026 334.176 97 328C97.277 325.358 97.277 325.358 97 323C90.8625 322.194 87.7054 324.774 83 328.25C81.6252 329.235 80.2502 330.219 78.875 331.203C77.0092 332.541 75.1544 333.88 73.3398 335.287C71.0239 337.008 69.4707 337.987 66.5508 338.066C62.9644 336.567 60.1929 334.373 57.1875 331.938C56.2913 331.229 56.2913 331.229 55.377 330.506C53.9116 329.345 52.4549 328.174 51 327C52.7336 323.533 56.961 322.889 60.4375 321.562C108.818 304.284 108.818 304.284 148.879 273.449C159.196 261.373 159.196 261.373 164.646 260.647C170.023 261.017 174.987 262.497 179.98 264.477C182.368 265.095 183.699 264.828 186 264C187.296 262.934 187.296 262.934 187.062 260.438C187.032 259.231 187.032 259.231 187 258C183.08 256.218 179.139 255.283 174.958 254.353C149.553 248.699 123.409 239.367 107 218C105.789 216.014 104.885 214.157 104 212C104.808 212.228 105.616 212.456 106.449 212.691C107.518 212.979 108.586 213.266 109.688 213.562C110.743 213.853 111.799 214.143 112.887 214.441C116.024 215.004 117.972 214.911 121 214C122.296 212.934 122.296 212.934 122.062 210.438C122.042 209.633 122.021 208.829 122 208C120.824 207.649 119.649 207.299 118.438 206.938C102.625 201.633 88.0654 194.124 80.125 178.812C78.5352 175.554 77.5973 172.577 77 169C77.5221 169.291 78.0441 169.583 78.582 169.883C80.1478 170.755 81.7157 171.623 83.2852 172.488C85.157 173.531 87.0185 174.592 88.8711 175.668C89.8211 176.211 90.7712 176.753 91.75 177.312C92.6317 177.824 93.5134 178.336 94.4219 178.863C97.1999 180.088 98.9989 180.31 102 180C103.218 178.954 103.218 178.954 103.555 176.738C103.293 173.993 103.293 173.993 101.563 172.783C99.4559 171.498 97.3117 170.333 95.125 169.188C93.5528 168.313 91.9838 167.433 90.418 166.547C89.274 165.9 89.274 165.9 88.1069 165.24C76.1949 158.228 66.9159 147.949 62 135C61.3405 131.908 61.1058 129.175 61 126Z" fill="#FCD156"/>
<path d="M444 189C446.577 192.041 447.603 194.54 448.473 198.414C448.72 199.477 448.968 200.539 449.223 201.634C449.48 202.745 449.736 203.855 450 205C450.554 207.197 451.116 209.392 451.684 211.586C451.969 212.693 452.255 213.801 452.549 214.941C454.898 224.017 457.266 233.073 459.898 242.07C462.546 251.338 464.855 260.709 467.243 270.046C467.709 271.863 468.178 273.679 468.655 275.493C469.415 278.42 470 280.961 470 284C462.785 285.997 455.569 287.991 448.352 289.98C447.13 290.317 445.909 290.654 444.651 291.001C439.16 292.504 433.66 293.97 428.157 295.427C423.165 296.753 418.176 298.096 413.188 299.438C412.054 299.742 410.92 300.047 409.752 300.361C403.43 302.065 397.116 303.794 390.812 305.562C383.09 307.728 375.335 309.756 367.568 311.754C362.92 312.956 358.287 314.189 353.676 315.527C352.852 315.765 352.028 316.003 351.18 316.248C349.645 316.695 348.112 317.15 346.582 317.615C342.949 318.672 340.608 319.113 337 318C336.784 317.145 336.568 316.289 336.345 315.408C335.339 311.438 334.328 307.468 333.312 303.5C333.13 302.788 332.948 302.077 332.761 301.344C330.408 292.173 327.892 283.1 324.953 274.098C323.849 270.51 323.111 266.94 322.449 263.25C321.996 260.978 321.382 258.834 320.688 256.625C319.054 251.381 317.71 246.076 316.375 240.75C316.157 239.886 315.938 239.022 315.714 238.131C314.628 233.771 313.655 229.451 313 225C318.709 222.762 324.394 220.98 330.324 219.434C331.212 219.199 332.099 218.963 333.014 218.721C334.916 218.218 336.82 217.716 338.723 217.216C342.749 216.159 346.773 215.092 350.797 214.026C352.854 213.481 354.911 212.937 356.968 212.393C365.947 210.019 374.916 207.612 383.881 205.187C386.102 204.586 388.323 203.986 390.544 203.386C397.895 201.399 405.24 199.388 412.578 197.352C413.674 197.048 413.674 197.048 414.791 196.738C419.39 195.458 423.978 194.145 428.562 192.812C433.679 191.341 438.787 190.079 444 189Z" fill="#FCFCFC"/>
<path d="M171 95C175.239 98.547 179.228 102.184 183.096 106.129C184.892 107.894 186.74 109.532 188.656 111.164C193.326 115.226 197.699 119.552 202.062 123.938C203.208 125.077 203.208 125.077 204.377 126.24C218.546 140.433 233.561 155.661 234.438 176.688C234.303 182.53 234.303 182.53 232.188 185.812C231.136 186.534 230.084 187.256 229 188C228.14 188.704 227.28 189.408 226.395 190.133C220.826 194.567 220.826 194.567 218 196C215.703 195.512 215.703 195.512 213 194C211.652 193.299 210.303 192.598 208.953 191.898C207.385 191.059 205.817 190.217 204.25 189.375C197.848 185.96 191.402 182.724 184.812 179.688C182.781 178.735 180.751 177.779 178.724 176.817C177.254 176.12 175.78 175.432 174.305 174.746C169.632 172.272 167.338 169.378 165.617 164.367C164.201 156.643 162.516 144.726 167 138C167.568 138.652 168.137 139.305 168.723 139.977C173.205 145.051 177.559 149.946 183 154C184.32 154 185.64 154 187 154C187.998 151.287 187.998 151.287 188 148C186.19 145.765 184.578 144.107 182.438 142.25C177.165 137.355 173.154 132.546 170 126C169.441 124.894 169.441 124.894 168.871 123.766C167.648 119.882 167.671 116.236 167.688 112.188C167.671 111.419 167.655 110.65 167.639 109.857C167.634 104.267 168.783 100.13 171 95Z" fill="#FAD057"/>
<path d="M285.688 351.625C288 352 288 352 290 354C290.562 356.25 290.562 356.25 290 359C271.919 378.889 237.047 387.302 212.074 393.483C210.695 393.827 209.319 394.18 207.946 394.542C195.632 397.761 182.679 398.461 170 399C169.005 399.043 168.01 399.085 166.984 399.129C124.873 399.973 124.873 399.973 115.105 392.562C114 391 114 391 114.188 388.438C115 386 115 386 117 384C119.459 384.133 121.762 384.381 124.188 384.75C125.48 384.93 126.773 385.111 128.105 385.297C130.856 385.687 133.602 386.093 136.348 386.514C145.49 387.849 154.378 388.351 163.625 388.312C164.666 388.31 164.666 388.31 165.728 388.307C177.703 388.254 189.24 387.299 201 385C202.365 384.751 202.365 384.751 203.757 384.496C229.435 379.762 260.052 370.595 280.719 353.789C283 352 283 352 285.688 351.625Z" fill="#334559"/>
<path d="M436 207C437 208 437 208 437.438 211.438C437.648 215.041 437.648 215.041 440 217C440.333 222.333 440.333 222.333 439 225C440.32 225.66 441.64 226.32 443 227C442.907 228.64 442.907 228.64 442.812 230.312C443.021 234.423 443.294 234.412 446 237C445.875 239.562 445.875 239.562 445 242C441.519 244.321 440.052 244 436 244C435.34 244.66 434.68 245.32 434 246C433.031 245.979 432.061 245.959 431.062 245.938C427.993 245.647 427.993 245.647 426.438 247.562C425.963 248.037 425.489 248.511 425 249C424.196 248.835 423.391 248.67 422.562 248.5C421.717 248.335 420.871 248.17 420 248C418.652 248.98 417.318 249.98 416 251C413.83 250.752 412.558 250.558 411 249C410.775 246.972 410.552 244.943 410.379 242.91C410.138 240.767 410.138 240.767 408 239C408.021 238.031 408.041 237.061 408.062 236.062C408.042 235.052 408.021 234.041 408 233C407.484 232.546 406.969 232.093 406.438 231.625C405 230 405 230 405.023 228.043C405.286 226.019 405.638 224.008 406 222C405.34 222 404.68 222 404 222C403.375 219.188 403.375 219.188 403 216C403.66 215.01 404.32 214.02 405 213C407.64 213.33 410.28 213.66 413 214C413.33 213.01 413.66 212.02 414 211C416.31 211.33 418.62 211.66 421 212C421 211.34 421 210.68 421 210C423.709 208.646 426.009 208.935 429 209C429 208.34 429 207.68 429 207C431.684 205.658 433.153 206.27 436 207Z" fill="#2D4156"/>
<path d="M404.25 270.938C406.106 270.968 406.106 270.968 408 271C408.625 273.312 408.625 273.312 409 276C406.675 279.488 406.094 279.525 402.188 280.43C401.203 280.665 400.218 280.901 399.204 281.143C398.146 281.385 397.089 281.626 396 281.875C393.809 282.398 391.619 282.923 389.43 283.449C387.797 283.839 387.797 283.839 386.132 284.236C381.771 285.3 377.446 286.473 373.125 287.688C372.394 287.891 371.664 288.095 370.911 288.305C367.019 289.4 363.162 290.577 359.312 291.812C355.362 293.013 352.119 293.429 348 293C347.34 292.34 346.68 291.68 346 291C346.098 288.51 346.098 288.51 347 286C348.934 284.722 348.934 284.722 351.438 283.84C352.799 283.358 352.799 283.358 354.188 282.867C358.422 281.562 362.673 280.509 367 279.562C375.545 277.615 383.981 275.412 392.41 273.016C400.006 270.867 400.006 270.867 404.25 270.938Z" fill="#36485A"/>
<path d="M392 253C394 255 394 255 394.188 257.375C392.513 261.076 390.291 261.7 386.613 263.16C383.233 264.246 379.862 264.947 376.359 265.508C373.962 265.934 373.962 265.934 371.673 266.948C367.243 268.691 362.631 269.624 358 270.688C357.015 270.925 356.03 271.163 355.016 271.408C354.062 271.628 353.108 271.848 352.125 272.074C350.829 272.377 350.829 272.377 349.508 272.686C346.735 273.033 344.683 272.742 342 272C341 271 341 271 340.75 268.562C340.833 267.717 340.915 266.871 341 266C343.814 264.124 345.205 263.582 348.402 262.922C349.283 262.733 350.164 262.545 351.072 262.35C352.018 262.152 352.963 261.954 353.938 261.75C362.601 259.876 371.049 257.628 379.476 254.88C383.752 253.52 387.453 252.48 392 253Z" fill="#334659"/>
<path d="M303 176C305.438 177.562 305.438 177.562 307 180C307.568 183.975 307.623 186.065 305.375 189.438C302.283 191.472 300.636 191.606 297 191C294.625 189.5 294.625 189.5 293 187C292.368 183.471 292.34 180.242 294.062 177C297.179 175.391 299.563 175.578 303 176Z" fill="#2A3D52"/>
<path d="M354 202C353.67 202.99 353.34 203.98 353 205C350.383 205.949 350.383 205.949 347.125 206.688C346.055 206.939 344.985 207.19 343.883 207.449C341 208 341 208 338 208C337.67 207.01 337.34 206.02 337 205C338.562 204.518 340.124 204.039 341.688 203.562C342.993 203.162 342.993 203.162 344.324 202.754C351.477 200.739 351.477 200.739 354 202Z" fill="#DBDCDF"/>
<path d="M330 189C333.565 190.783 336.715 192.76 340 195C336.555 197.296 334.062 197.54 330 198C330 195.03 330 192.06 330 189Z" fill="#E7CC5F"/>
<path d="M327.812 207.625C328.534 207.749 329.256 207.873 330 208C330.33 208.99 330.66 209.98 331 211C325.555 212.485 325.555 212.485 320 214C324.308 208.092 324.308 208.092 327.812 207.625Z" fill="#E4E4E6"/>
<path d="M156 267C156.33 267.66 156.66 268.32 157 269C152.886 275.705 152.886 275.705 149.188 276.938C148.105 276.968 148.105 276.968 147 277C147.936 275.894 148.874 274.791 149.812 273.688C150.335 273.073 150.857 272.458 151.395 271.824C152.872 270.146 154.4 268.561 156 267Z" fill="#E0CA60"/>
<path d="M346 204C345.67 204.99 345.34 205.98 345 207C342.69 207.33 340.38 207.66 338 208C337.67 207.01 337.34 206.02 337 205C339.957 203.522 342.742 203.94 346 204Z" fill="#EDEEEF"/>
<path d="M54 112C54.99 112.33 55.98 112.66 57 113C56.0332 113.551 56.0332 113.551 55.0469 114.113C52.2445 116.696 52.4111 118.443 52.25 122.188C52.1933 123.274 52.1366 124.361 52.0781 125.48C52.0523 126.312 52.0266 127.143 52 128C51.67 128 51.34 128 51 128C50.9192 125.709 50.8609 123.417 50.8125 121.125C50.7777 119.849 50.7429 118.573 50.707 117.258C50.8037 116.183 50.9004 115.108 51 114C51.99 113.34 52.98 112.68 54 112Z" fill="#4F5865"/>
<path d="M98 325C98.7148 326.766 98.7148 326.766 99 329C97.5664 330.922 97.5664 330.922 95.5625 332.75C94.9038 333.364 94.2451 333.977 93.5664 334.609C93.0495 335.068 92.5326 335.527 92 336C91.01 335.67 90.02 335.34 89 335C89.8488 334.294 89.8488 334.294 90.7148 333.574C91.4483 332.952 92.1818 332.329 92.9375 331.688C93.6684 331.073 94.3993 330.458 95.1523 329.824C97.2382 328.04 97.2382 328.04 98 325Z" fill="#DCC75F"/>
<path d="M104 212C108.95 212.99 108.95 212.99 114 214C114 214.33 114 214.66 114 215C112.02 215 110.04 215 108 215C107.67 215.99 107.34 216.98 107 218C106.01 216.02 105.02 214.04 104 212Z" fill="#D4C261"/>
<path d="M146 277C146 280 146 280 144.469 281.605C143.819 282.128 143.169 282.65 142.5 283.188C141.85 283.717 141.201 284.247 140.531 284.793C140.026 285.191 139.521 285.59 139 286C139 283 139 283 140.531 281.395C141.506 280.611 141.506 280.611 142.5 279.812C143.15 279.283 143.799 278.753 144.469 278.207C144.974 277.809 145.479 277.41 146 277Z" fill="#EACE5E"/>
</svg>
