<svg width="431" height="309" viewBox="0 0 431 309" fill="none" xmlns="http://www.w3.org/2000/svg">
<path fill-rule="evenodd" clip-rule="evenodd" d="M200.124 0.526442C187.076 2.61644 175.979 8.50944 167.384 17.9134C161.525 24.3244 157.32 32.0524 152.037 46.1184C149.825 52.0074 147.459 57.6204 146.779 58.5904C146.099 59.5614 118.111 88.1005 84.5835 122.011C51.0565 155.922 23.2185 184.704 22.7225 185.971C20.6075 191.371 24.7795 193.761 40.3935 196.096C45.9895 196.933 50.7805 197.831 51.0415 198.092C51.3025 198.352 39.9525 210.16 25.8205 224.331C-1.04952 251.274 -2.29051 252.95 1.68549 256.926C6.46449 261.705 26.1155 263.387 39.4435 260.157C54.3935 256.534 70.5045 247.031 82.9705 234.481L90.7425 226.656L97.8235 228.976C101.717 230.251 106.64 231.591 108.764 231.954C112.48 232.588 113.022 233.234 123.316 249.31L134.009 266.008L128.847 266.318C126.008 266.488 123.108 267.106 122.404 267.69C120.478 269.289 120.864 273.299 123.058 274.473C124.186 275.076 132.495 275.508 142.987 275.508C158.012 275.508 161.24 275.249 162.553 273.937C164.547 271.942 164.547 270.074 162.553 268.079C161.405 266.931 158.912 266.498 153.303 266.471L145.624 266.435L142.667 261.721C141.041 259.129 136.87 252.634 133.398 247.289C125.934 235.798 125.028 233.873 127.532 234.834C128.498 235.205 135.785 235.508 143.726 235.508H158.164L167.644 250.013C172.858 257.991 177.124 264.858 177.124 265.272C177.124 265.687 176.224 266.589 175.124 267.276C172.903 268.663 172.471 272.455 174.324 274.308C175.164 275.148 180.686 275.508 192.753 275.508C207.082 275.508 210.246 275.244 211.553 273.937C213.395 272.094 213.495 271.07 212.089 268.442C211.166 266.718 209.911 266.508 200.556 266.508H190.058L179.489 250.443C173.676 241.607 169.107 234.191 169.336 233.963C169.564 233.735 174.064 232.427 179.336 231.058C191.167 227.984 200.992 224.333 207.859 220.46C210.738 218.837 213.498 217.508 213.993 217.508C214.513 217.508 214.836 234.495 214.758 257.758C214.63 296.342 214.707 298.148 216.624 301.395C217.724 303.258 220.192 305.62 222.108 306.645C225.438 308.425 229.867 308.508 321.957 308.508C428.547 308.508 422.591 308.868 427.394 302.135L429.624 299.008L429.9 229.128C430.174 160.042 430.153 159.199 428.09 154.938C426.567 151.793 424.854 150.072 421.748 148.568C417.567 146.544 416.181 146.508 342.241 146.508C271.038 146.508 267.018 146.414 267.519 144.758C270.443 135.092 270.882 113.688 268.512 96.2854C266.981 85.0344 267.166 75.6764 268.98 72.7414C269.441 71.9944 273.749 71.1145 279.687 70.5525C288.051 69.7615 289.903 69.2655 291.399 67.4165C292.946 65.5065 292.998 64.9474 291.8 63.1144C290.736 61.4874 288.123 60.5534 280.319 59.0084C271.424 57.2474 270.147 56.7334 269.64 54.7124C269.322 53.4494 269.296 52.0394 269.58 51.5794C269.865 51.1184 274.733 48.0374 280.399 44.7324C291.895 38.0264 293.422 36.6374 292.951 33.3134C292.628 31.0344 292.447 31.0054 277.124 30.7144L261.624 30.4204L258.225 25.4284C251.353 15.3354 239.775 6.72645 227.624 2.67445C220.486 0.294445 207.774 -0.698558 200.124 0.526442ZM220.893 11.0164C230.208 13.2124 236.841 17.0194 244.233 24.4104C251.641 31.8184 256.344 40.1034 258.618 49.7484C260.523 57.8274 260.496 62.6875 258.486 73.6775C256.95 82.0705 256.959 83.4624 258.62 95.8204C262.121 121.862 260.577 138.997 253.02 157.947C241.438 186.992 215.936 210.034 184.499 219.858C168.461 224.869 160.81 225.973 142.124 225.973C122.762 225.973 114.791 224.767 97.8805 219.278L88.1375 216.116L77.8805 226.142C72.2395 231.656 65.4845 237.618 62.8685 239.39C56.2645 243.864 44.7595 249.153 37.6645 250.976C31.5605 252.545 12.1245 253.134 12.1245 251.751C12.1245 251.334 23.7125 239.416 37.8745 225.267L63.6245 199.539L88.1245 199.149C107.738 198.836 114.862 198.333 123.844 196.626C151.89 191.297 171.699 181.698 187.378 165.839C202.214 150.833 209.062 135.387 209.107 116.829C209.125 109.254 207.813 106.508 204.175 106.508C201.244 106.508 200.433 108.527 199.755 117.508C198.509 134.025 193.902 144.482 182.628 156.376C164.172 175.85 141.027 185.465 105.124 188.572C87.5575 190.092 55.1955 188.757 39.2615 185.855L35.8985 185.243L76.2755 144.626C98.4825 122.286 125.692 94.7834 136.741 83.5084L156.83 63.0084L162.461 48.7024C165.558 40.8334 169.726 31.9334 171.724 28.9244C181.875 13.6304 201.565 6.45945 220.893 11.0164ZM214.662 37.7584C209.317 42.4314 209.703 51.0614 215.412 54.5424C220.401 57.5844 224.713 57.1195 228.724 53.1085C232.353 49.4795 233.086 45.7134 231.039 41.2204C228.488 35.6214 219.322 33.6834 214.662 37.7584ZM418.924 157.708C420.66 159.444 420.66 295.572 418.924 297.308C417.184 299.048 227.064 299.048 225.324 297.308C224.428 296.412 224.124 285.375 224.124 253.811V211.514L235.965 199.761C248.522 187.296 254.982 178.134 261.221 163.935L264.485 156.508H341.105C399.364 156.508 418.012 156.796 418.924 157.708ZM364.439 170.483C360.562 172.102 360.124 174.565 360.124 194.751C360.124 209.902 360.433 214.549 361.543 216.067C362.865 217.876 364.317 218.008 382.883 218.008C398.296 218.008 403.181 217.697 404.465 216.636C405.915 215.436 406.124 212.591 406.124 194.008C406.124 175.473 405.913 172.577 404.473 171.38C402.512 169.75 368.047 168.978 364.439 170.483ZM396.124 194.008V208.508H383.124H370.124V194.008V179.508H383.124H396.124V194.008ZM308.374 237.04C305.595 238.993 305.422 243.062 308.058 244.473C309.311 245.143 326.237 245.508 356.124 245.508C386.011 245.508 402.937 245.143 404.19 244.473C406.248 243.371 406.712 239.987 405.146 237.508C404.329 236.216 397.708 235.97 357.411 235.733C316.078 235.491 310.362 235.643 308.374 237.04ZM307.72 259.814C305.252 261.619 306.02 265.658 309.124 267.2C312.734 268.994 399.536 269 403.124 267.207C405.919 265.81 406.904 262.153 405.078 259.953C403.385 257.912 310.502 257.78 307.72 259.814Z" fill="#31445A"/>
<path fill-rule="evenodd" clip-rule="evenodd" d="M202.195 0.535004C203.168 0.789004 204.518 0.772001 205.195 0.498001C205.872 0.224001 205.076 0.0170026 203.426 0.0370026C201.776 0.0570026 201.222 0.281004 202.195 0.535004ZM215.676 0.504005C216.364 0.782005 217.489 0.782005 218.176 0.504005C218.864 0.227005 218.301 0 216.926 0C215.551 0 214.989 0.227005 215.676 0.504005ZM198.686 11.4C187.41 14.133 178.551 20.18 172.526 29.258C170.528 32.267 166.36 41.167 163.263 49.036L157.632 63.342L137.543 83.842C126.494 95.117 99.2841 122.62 77.0771 144.96L36.7001 185.577L40.0631 186.189C55.9971 189.091 88.3591 190.426 105.926 188.906C141.829 185.799 164.974 176.184 183.43 156.71C194.704 144.816 199.311 134.359 200.557 117.842C201.235 108.861 202.046 106.842 204.977 106.842C208.615 106.842 209.927 109.588 209.909 117.163C209.864 135.721 203.016 151.167 188.18 166.173C172.501 182.032 152.692 191.631 124.646 196.96C115.664 198.667 108.54 199.17 88.9261 199.483L64.4261 199.873L38.6761 225.601C24.5141 239.75 12.9261 251.668 12.9261 252.085C12.9261 253.468 32.3621 252.879 38.4661 251.31C45.5611 249.487 57.0661 244.198 63.6701 239.724C66.2861 237.952 73.0411 231.99 78.6821 226.476L88.9391 216.45L98.6821 219.612C115.593 225.101 123.564 226.307 142.926 226.307C161.612 226.307 169.263 225.203 185.301 220.192C216.738 210.368 242.24 187.326 253.822 158.281C261.379 139.331 262.923 122.196 259.422 96.154C257.761 83.796 257.752 82.404 259.288 74.011C260.189 69.085 260.919 63.095 260.911 60.699C260.889 54.226 258.35 44.626 254.801 37.594C250.931 29.927 240.361 19.109 233.189 15.475C222.658 10.139 210.039 8.648 198.686 11.4ZM168.872 16.592L165.426 20.342L169.176 16.896C171.239 15 172.926 13.313 172.926 13.146C172.926 12.382 172.08 13.102 168.872 16.592ZM251.926 17.342C253.218 18.717 254.5 19.842 254.775 19.842C255.05 19.842 254.218 18.717 252.926 17.342C251.634 15.967 250.352 14.842 250.077 14.842C249.802 14.842 250.634 15.967 251.926 17.342ZM269.176 30.585C273.438 30.773 280.414 30.773 284.676 30.585C288.938 30.398 285.451 30.244 276.926 30.244C268.401 30.244 264.914 30.398 269.176 30.585ZM294.005 34.425C294.053 35.59 294.29 35.827 294.609 35.03C294.898 34.308 294.862 33.445 294.53 33.113C294.198 32.781 293.962 33.371 294.005 34.425ZM227.936 37.507C231.219 39.446 232.926 42.69 232.926 46.989C232.926 51.373 227.289 56.843 222.776 56.838C217.973 56.833 213.181 53.589 212.129 49.63C209.514 39.797 219.216 32.356 227.936 37.507ZM271.739 57.525C272.46 57.814 273.323 57.778 273.655 57.446C273.987 57.114 273.397 56.878 272.343 56.921C271.178 56.969 270.941 57.206 271.739 57.525ZM135.409 71.092L124.426 82.342L135.676 71.359C141.864 65.318 146.926 60.256 146.926 60.109C146.926 59.388 145.61 60.643 135.409 71.092ZM287.739 60.525C288.46 60.814 289.323 60.778 289.655 60.446C289.987 60.114 289.397 59.878 288.343 59.921C287.178 59.969 286.941 60.206 287.739 60.525ZM287.739 70.525C288.46 70.814 289.323 70.778 289.655 70.446C289.987 70.114 289.397 69.878 288.343 69.921C287.178 69.969 286.941 70.206 287.739 70.525ZM276.176 71.531C277.138 71.783 278.714 71.783 279.676 71.531C280.638 71.28 279.851 71.074 277.926 71.074C276.001 71.074 275.214 71.28 276.176 71.531ZM268.236 84.342C268.241 87.642 268.428 88.871 268.651 87.074C268.873 85.277 268.869 82.577 268.641 81.074C268.412 79.571 268.23 81.042 268.236 84.342ZM269.084 95.842C269.084 97.217 269.311 97.78 269.588 97.092C269.866 96.405 269.866 95.28 269.588 94.592C269.311 93.905 269.084 94.467 269.084 95.842ZM270.005 103.425C270.053 104.59 270.29 104.827 270.609 104.03C270.898 103.308 270.862 102.445 270.53 102.113C270.198 101.781 269.962 102.371 270.005 103.425ZM271.269 119.342C271.272 123.742 271.448 125.418 271.659 123.066C271.871 120.714 271.868 117.114 271.653 115.066C271.438 113.018 271.265 114.942 271.269 119.342ZM67.9151 139.592L50.4261 157.342L68.1761 139.853C77.9391 130.234 85.9261 122.246 85.9261 122.103C85.9261 121.39 84.1641 123.101 67.9151 139.592ZM269.005 141.425C269.053 142.59 269.29 142.827 269.609 142.03C269.898 141.308 269.862 140.445 269.53 140.113C269.198 139.781 268.962 140.371 269.005 141.425ZM361.906 172.366C361.21 173.204 360.835 174.084 361.071 174.321C361.308 174.557 362.051 173.872 362.722 172.797C364.174 170.472 363.69 170.217 361.906 172.366ZM407.346 194.342C407.345 205.342 407.491 209.978 407.671 204.645C407.85 199.312 407.851 190.312 407.672 184.645C407.494 178.978 407.347 183.342 407.346 194.342ZM377.176 180.584C380.888 180.776 386.964 180.776 390.676 180.584C394.388 180.391 391.351 180.234 383.926 180.234C376.501 180.234 373.464 180.391 377.176 180.584ZM22.0051 188.425C22.0531 189.59 22.2901 189.827 22.6091 189.03C22.8981 188.308 22.8621 187.445 22.5301 187.113C22.1981 186.781 21.9621 187.371 22.0051 188.425ZM238.388 199.092L233.426 204.342L238.676 199.38C241.563 196.65 243.926 194.288 243.926 194.13C243.926 193.383 243 194.214 238.388 199.092ZM37.7391 196.525C38.4601 196.814 39.3231 196.778 39.6551 196.446C39.9871 196.114 39.3971 195.878 38.3431 195.921C37.1781 195.969 36.9411 196.206 37.7391 196.525ZM44.6761 197.504C45.3641 197.782 46.4891 197.782 47.1761 197.504C47.8641 197.227 47.3011 197 45.9261 197C44.5511 197 43.9891 197.227 44.6761 197.504ZM42.9041 207.592L34.4261 216.342L43.1761 207.864C51.3031 199.99 52.3821 198.842 51.6541 198.842C51.5041 198.842 47.5671 202.78 42.9041 207.592ZM227.798 208.592C226.555 210.178 226.59 210.213 228.176 208.97C229.842 207.663 230.371 206.842 229.548 206.842C229.341 206.842 228.553 207.63 227.798 208.592ZM31.7981 218.592C30.5551 220.178 30.5901 220.213 32.1761 218.97C33.8421 217.663 34.3711 216.842 33.5481 216.842C33.3411 216.842 32.5531 217.63 31.7981 218.592ZM215.304 228.842C215.304 235.167 215.467 237.755 215.665 234.592C215.863 231.429 215.863 226.255 215.665 223.092C215.467 219.929 215.304 222.517 215.304 228.842ZM365.176 218.531C366.138 218.783 367.714 218.783 368.676 218.531C369.638 218.28 368.851 218.074 366.926 218.074C365.001 218.074 364.214 218.28 365.176 218.531ZM88.3631 230.092L85.4261 233.342L88.9211 230.342C90.8431 228.692 92.6061 227.229 92.8381 227.092C93.0701 226.955 92.8191 226.842 92.2801 226.842C91.7411 226.842 89.9781 228.304 88.3631 230.092ZM140.694 236.567C142.491 236.789 145.191 236.785 146.694 236.557C148.197 236.328 146.726 236.146 143.426 236.152C140.126 236.157 138.897 236.344 140.694 236.567ZM307.798 237.592C306.529 239.211 306.576 239.232 308.426 237.875C309.526 237.068 310.614 236.281 310.843 236.125C311.072 235.969 310.789 235.842 310.215 235.842C309.641 235.842 308.553 236.63 307.798 237.592ZM78.3311 240.092L76.4261 242.342L78.6761 240.437C80.7901 238.647 81.3811 237.842 80.5811 237.842C80.3911 237.842 79.3791 238.854 78.3311 240.092ZM0.00505749 253.425C0.0530575 254.59 0.290058 254.827 0.609058 254.03C0.898058 253.308 0.862059 252.445 0.530059 252.113C0.198059 251.781 -0.0379425 252.371 0.00505749 253.425ZM29.7391 262.525C30.4601 262.814 31.3231 262.778 31.6551 262.446C31.9871 262.114 31.3971 261.878 30.3431 261.921C29.1781 261.969 28.9411 262.206 29.7391 262.525ZM407.005 263.425C407.053 264.59 407.29 264.827 407.609 264.03C407.898 263.308 407.862 262.445 407.53 262.113C407.198 261.781 406.962 262.371 407.005 263.425ZM128.19 266.56C129.71 266.789 131.96 266.783 133.19 266.546C134.42 266.309 133.176 266.121 130.426 266.128C127.676 266.136 126.67 266.33 128.19 266.56ZM149.702 266.575C152.054 266.787 155.654 266.784 157.702 266.569C159.75 266.354 157.826 266.181 153.426 266.185C149.026 266.188 147.35 266.364 149.702 266.575ZM195.71 266.58C198.615 266.783 203.115 266.781 205.71 266.576C208.304 266.37 205.926 266.205 200.426 266.207C194.926 266.21 192.804 266.378 195.71 266.58ZM173.005 271.425C173.053 272.59 173.29 272.827 173.609 272.03C173.898 271.308 173.862 270.445 173.53 270.113C173.198 269.781 172.962 270.371 173.005 271.425ZM215.084 295.842C215.084 297.217 215.311 297.78 215.588 297.092C215.866 296.405 215.866 295.28 215.588 294.592C215.311 293.905 215.084 294.467 215.084 295.842Z" fill="#FCD04A"/>
<path fill-rule="evenodd" clip-rule="evenodd" d="M202.195 0.535004C203.168 0.789004 204.518 0.772001 205.195 0.498001C205.872 0.224001 205.076 0.0170026 203.426 0.0370026C201.776 0.0570026 201.222 0.281004 202.195 0.535004ZM215.676 0.504005C216.364 0.782005 217.489 0.782005 218.176 0.504005C218.864 0.227005 218.301 0 216.926 0C215.551 0 214.989 0.227005 215.676 0.504005ZM198.686 11.4C187.41 14.133 178.551 20.18 172.526 29.258C170.528 32.267 166.36 41.167 163.263 49.036L157.632 63.342L137.543 83.842C126.494 95.117 99.2841 122.62 77.0771 144.96L36.7001 185.577L40.0631 186.189C55.9971 189.091 88.3591 190.426 105.926 188.906C141.829 185.799 164.974 176.184 183.43 156.71C194.704 144.816 199.311 134.359 200.557 117.842C201.235 108.861 202.046 106.842 204.977 106.842C208.615 106.842 209.927 109.588 209.909 117.163C209.864 135.721 203.016 151.167 188.18 166.173C172.501 182.032 152.692 191.631 124.646 196.96C115.664 198.667 108.54 199.17 88.9261 199.483L64.4261 199.873L38.6761 225.601C24.5141 239.75 12.9261 251.668 12.9261 252.085C12.9261 253.468 32.3621 252.879 38.4661 251.31C45.5611 249.487 57.0661 244.198 63.6701 239.724C66.2861 237.952 73.0411 231.99 78.6821 226.476L88.9391 216.45L98.6821 219.612C115.593 225.101 123.564 226.307 142.926 226.307C161.612 226.307 169.263 225.203 185.301 220.192C216.738 210.368 242.24 187.326 253.822 158.281C261.379 139.331 262.923 122.196 259.422 96.154C257.761 83.796 257.752 82.404 259.288 74.011C260.189 69.085 260.919 63.095 260.911 60.699C260.889 54.226 258.35 44.626 254.801 37.594C250.931 29.927 240.361 19.109 233.189 15.475C222.658 10.139 210.039 8.648 198.686 11.4ZM168.872 16.592L165.426 20.342L169.176 16.896C171.239 15 172.926 13.313 172.926 13.146C172.926 12.382 172.08 13.102 168.872 16.592ZM251.926 17.342C253.218 18.717 254.5 19.842 254.775 19.842C255.05 19.842 254.218 18.717 252.926 17.342C251.634 15.967 250.352 14.842 250.077 14.842C249.802 14.842 250.634 15.967 251.926 17.342ZM269.176 30.585C273.438 30.773 280.414 30.773 284.676 30.585C288.938 30.398 285.451 30.244 276.926 30.244C268.401 30.244 264.914 30.398 269.176 30.585ZM294.005 34.425C294.053 35.59 294.29 35.827 294.609 35.03C294.898 34.308 294.862 33.445 294.53 33.113C294.198 32.781 293.962 33.371 294.005 34.425ZM227.936 37.507C231.219 39.446 232.926 42.69 232.926 46.989C232.926 51.373 227.289 56.843 222.776 56.838C217.973 56.833 213.181 53.589 212.129 49.63C209.514 39.797 219.216 32.356 227.936 37.507ZM271.739 57.525C272.46 57.814 273.323 57.778 273.655 57.446C273.987 57.114 273.397 56.878 272.343 56.921C271.178 56.969 270.941 57.206 271.739 57.525ZM135.409 71.092L124.426 82.342L135.676 71.359C141.864 65.318 146.926 60.256 146.926 60.109C146.926 59.388 145.61 60.643 135.409 71.092ZM287.739 60.525C288.46 60.814 289.323 60.778 289.655 60.446C289.987 60.114 289.397 59.878 288.343 59.921C287.178 59.969 286.941 60.206 287.739 60.525ZM287.739 70.525C288.46 70.814 289.323 70.778 289.655 70.446C289.987 70.114 289.397 69.878 288.343 69.921C287.178 69.969 286.941 70.206 287.739 70.525ZM276.176 71.531C277.138 71.783 278.714 71.783 279.676 71.531C280.638 71.28 279.851 71.074 277.926 71.074C276.001 71.074 275.214 71.28 276.176 71.531ZM268.236 84.342C268.241 87.642 268.428 88.871 268.651 87.074C268.873 85.277 268.869 82.577 268.641 81.074C268.412 79.571 268.23 81.042 268.236 84.342ZM269.084 95.842C269.084 97.217 269.311 97.78 269.588 97.092C269.866 96.405 269.866 95.28 269.588 94.592C269.311 93.905 269.084 94.467 269.084 95.842ZM270.005 103.425C270.053 104.59 270.29 104.827 270.609 104.03C270.898 103.308 270.862 102.445 270.53 102.113C270.198 101.781 269.962 102.371 270.005 103.425ZM271.269 119.342C271.272 123.742 271.448 125.418 271.659 123.066C271.871 120.714 271.868 117.114 271.653 115.066C271.438 113.018 271.265 114.942 271.269 119.342ZM67.9151 139.592L50.4261 157.342L68.1761 139.853C77.9391 130.234 85.9261 122.246 85.9261 122.103C85.9261 121.39 84.1641 123.101 67.9151 139.592ZM269.005 141.425C269.053 142.59 269.29 142.827 269.609 142.03C269.898 141.308 269.862 140.445 269.53 140.113C269.198 139.781 268.962 140.371 269.005 141.425ZM361.906 172.366C361.21 173.204 360.835 174.084 361.071 174.321C361.308 174.557 362.051 173.872 362.722 172.797C364.174 170.472 363.69 170.217 361.906 172.366ZM407.346 194.342C407.345 205.342 407.491 209.978 407.671 204.645C407.85 199.312 407.851 190.312 407.672 184.645C407.494 178.978 407.347 183.342 407.346 194.342ZM377.176 180.584C380.888 180.776 386.964 180.776 390.676 180.584C394.388 180.391 391.351 180.234 383.926 180.234C376.501 180.234 373.464 180.391 377.176 180.584ZM22.0051 188.425C22.0531 189.59 22.2901 189.827 22.6091 189.03C22.8981 188.308 22.8621 187.445 22.5301 187.113C22.1981 186.781 21.9621 187.371 22.0051 188.425ZM238.388 199.092L233.426 204.342L238.676 199.38C241.563 196.65 243.926 194.288 243.926 194.13C243.926 193.383 243 194.214 238.388 199.092ZM37.7391 196.525C38.4601 196.814 39.3231 196.778 39.6551 196.446C39.9871 196.114 39.3971 195.878 38.3431 195.921C37.1781 195.969 36.9411 196.206 37.7391 196.525ZM44.6761 197.504C45.3641 197.782 46.4891 197.782 47.1761 197.504C47.8641 197.227 47.3011 197 45.9261 197C44.5511 197 43.9891 197.227 44.6761 197.504ZM42.9041 207.592L34.4261 216.342L43.1761 207.864C51.3031 199.99 52.3821 198.842 51.6541 198.842C51.5041 198.842 47.5671 202.78 42.9041 207.592ZM227.798 208.592C226.555 210.178 226.59 210.213 228.176 208.97C229.842 207.663 230.371 206.842 229.548 206.842C229.341 206.842 228.553 207.63 227.798 208.592ZM31.7981 218.592C30.5551 220.178 30.5901 220.213 32.1761 218.97C33.8421 217.663 34.3711 216.842 33.5481 216.842C33.3411 216.842 32.5531 217.63 31.7981 218.592ZM215.304 228.842C215.304 235.167 215.467 237.755 215.665 234.592C215.863 231.429 215.863 226.255 215.665 223.092C215.467 219.929 215.304 222.517 215.304 228.842ZM365.176 218.531C366.138 218.783 367.714 218.783 368.676 218.531C369.638 218.28 368.851 218.074 366.926 218.074C365.001 218.074 364.214 218.28 365.176 218.531ZM88.3631 230.092L85.4261 233.342L88.9211 230.342C90.8431 228.692 92.6061 227.229 92.8381 227.092C93.0701 226.955 92.8191 226.842 92.2801 226.842C91.7411 226.842 89.9781 228.304 88.3631 230.092ZM140.694 236.567C142.491 236.789 145.191 236.785 146.694 236.557C148.197 236.328 146.726 236.146 143.426 236.152C140.126 236.157 138.897 236.344 140.694 236.567ZM307.798 237.592C306.529 239.211 306.576 239.232 308.426 237.875C309.526 237.068 310.614 236.281 310.843 236.125C311.072 235.969 310.789 235.842 310.215 235.842C309.641 235.842 308.553 236.63 307.798 237.592ZM78.3311 240.092L76.4261 242.342L78.6761 240.437C80.7901 238.647 81.3811 237.842 80.5811 237.842C80.3911 237.842 79.3791 238.854 78.3311 240.092ZM0.00505749 253.425C0.0530575 254.59 0.290058 254.827 0.609058 254.03C0.898058 253.308 0.862059 252.445 0.530059 252.113C0.198059 251.781 -0.0379425 252.371 0.00505749 253.425ZM29.7391 262.525C30.4601 262.814 31.3231 262.778 31.6551 262.446C31.9871 262.114 31.3971 261.878 30.3431 261.921C29.1781 261.969 28.9411 262.206 29.7391 262.525ZM407.005 263.425C407.053 264.59 407.29 264.827 407.609 264.03C407.898 263.308 407.862 262.445 407.53 262.113C407.198 261.781 406.962 262.371 407.005 263.425ZM128.19 266.56C129.71 266.789 131.96 266.783 133.19 266.546C134.42 266.309 133.176 266.121 130.426 266.128C127.676 266.136 126.67 266.33 128.19 266.56ZM149.702 266.575C152.054 266.787 155.654 266.784 157.702 266.569C159.75 266.354 157.826 266.181 153.426 266.185C149.026 266.188 147.35 266.364 149.702 266.575ZM195.71 266.58C198.615 266.783 203.115 266.781 205.71 266.576C208.304 266.37 205.926 266.205 200.426 266.207C194.926 266.21 192.804 266.378 195.71 266.58ZM173.005 271.425C173.053 272.59 173.29 272.827 173.609 272.03C173.898 271.308 173.862 270.445 173.53 270.113C173.198 269.781 172.962 270.371 173.005 271.425ZM215.084 295.842C215.084 297.217 215.311 297.78 215.588 297.092C215.866 296.405 215.866 295.28 215.588 294.592C215.311 293.905 215.084 294.467 215.084 295.842Z" fill="#FCD04A"/>
</svg>
