<?xml version="1.0" encoding="UTF-8"?>
<svg viewBox="0 0 2048 1366" xmlns="http://www.w3.org/2000/svg">
<path d="m390.35 261.41c4.799-27.975 31.144-46.935 59.195-42.599l691.75 106.93c27.91 4.315 47.28 30.123 43.62 58.129l-89.28 683.01c-3.87 29.64-31.89 49.92-61.26 44.34l-714.69-135.69c-27.861-5.29-46.346-31.928-41.552-59.878l112.22-654.24z" fill="#fff"/>
<ellipse cx="1392" cy="1001" rx="81" ry="78" fill="#FFD44D"/>
<ellipse cx="1685" cy="683" rx="81" ry="78" fill="#FFD44D"/>
<ellipse cx="1409.5" cy="468" rx="63.5" ry="61" fill="#FFD44D"/>
<path d="m1627.4 92.467c-8.8 3.3333-16 7.6003-21.46 12.533-5.6 5.067-30.54 35.733-134 164.93-78.67 98.267-91.07 113.47-92.94 112.8-13.73-4.666-25.33-4.266-36 1.334-7.06 3.6-11.2 7.466-21.73 20.533-10.13 12.4-12.8 17.333-15.07 27.6-2.13 9.6-0.4 19.2 5.34 28.133 2.13 3.467 3.33 6.534 2.66 6.934-0.8 0.4-12.93 15.333-27.2 33.066-14.26 17.867-26.66 33.067-27.6 33.867-1.06 0.667-4.93 1.733-8.8 2.133-8.8 1.067-14.53 4-20.26 10.534-7.87 9.066-37.34 47.2-66.94 86.4-31.2 41.333-33.2 44.933-33.2 60.266 0 10.8 2.14 16.8 7.74 21.2l4 3.2-19.6 24.934c-10.67 13.6-29.07 37.066-40.94 52-35.46 44.933-34.13 41.866-21.46 50.933 10.26 7.333 15.2 12.533 21.46 22.4 2.67 4.267 5.87 7.733 7.07 7.733s23.87-21.466 50.27-47.733c26.53-26.267 51.73-50.8 56.13-54.4l8-6.8 6 2.8c4.53 2 8.8 2.667 17.33 2.667 17.74 0.133 19.87-1.467 53.6-38.667 49.07-54.267 71.87-80.933 75.74-88.533 3.33-6.534 4.66-16.4 2.93-22-1.07-3.6-0.67-4.667 4.4-10.667 3.07-3.733 16-19.6 28.53-35.333 12.67-15.734 23.47-28.8 23.87-28.934 1.07-0.4 79.47 55.2 139.6 98.8l38.4 27.867-3.87 3.333c-2.13 1.734-18.53 16.267-36.53 32.267-46.8 41.467-130.53 115.47-184 162.67-25.33 22.266-49.87 44.533-54.67 49.333-20.8 20.8-30.66 44.8-30.66 74.933 0 15.997 1.33 21.197 23.2 94.137 10.8 35.46 19.46 64.66 19.46 64.93 0 0.4 59.47 0.67 132.14 0.67 125.2 0 132.13-0.14 131.6-2.4-0.8-2.54-20.4-55.87-46.27-124.94l-17.33-46.53 8.8-9.467c20.93-22 98-101.07 162.4-166.67 48.26-49.2 70.93-73.067 74.26-78.667 7.74-12.8 12-27.2 12.67-42.667 1.2-26-6.13-45.733-23.6-63.466-10.53-10.8-17.2-14.8-232-142.53-23.87-14.266-43.47-25.866-43.73-26.133-0.27-0.133 97.6-126.13 190.13-244.53 22.67-29.067 26.27-38.267 25.33-63.2-0.4-11.6-1.06-14.667-4.53-22.134-6-12.666-14.67-21.6-26.8-27.6-9.47-4.6667-11.07-5.0667-23.6-5.3334-8.93-0.2667-15.07 0.2667-18.27 1.4667zm-203.06 329.6c9.86 4.666 18.93 13.733 24 23.866 3.86 7.867 4.63 22 4.63 22s-1.17 14.667-4.63 21.867c-18.67 38-71.6 36.8-90-1.867-2.94-6.266-3.47-9.066-3.47-20 0-10.933 0.53-13.733 3.6-20.266 6.4-13.734 19.07-24.667 32.93-28.667 9.47-2.667 23.6-1.333 32.94 3.067zm282.53 196.67c50.8 15.734 66.8 79.334 29.47 116.67-13.74 13.6-30.14 20.533-49.47 20.533-20.53 0-35.07-6.133-50.13-21.2-10.8-10.8-15.74-19.2-19.2-32.8-10.27-39.866 18.8-80.8 61.33-86.533 6.53-0.8 19.47 0.667 28 3.333zm-294.93 311.2c41.06 8.667 67.33 52.8 55.06 92.797-7.73 25.2-27.86 44.54-53.46 51.2-12.54 3.2-29.6 2.67-41.74-1.46-12.26-4-26.26-13.07-33.6-21.6-10.4-12-18.66-33.6-18.66-48.94 0-8.663 3.73-23.463 8.13-32.397 4.93-10.266 16.67-23.066 26.93-29.733 7.2-4.667 19.74-9.6 27.6-10.933 7.47-1.2 21.2-0.8 29.74 1.066z" fill="#2F4156"/>
<path d="m1391.3 443.6c-14.93 7.734-19.86 25.867-10.66 38.934 4.4 6.533 14.93 12.133 22.53 12.133 15.6-0.133 29.33-15.733 26.93-30.533-1.2-7.467-7.46-16.267-14-19.734-7.06-3.6-18.66-4.133-24.8-0.8z" fill="#2F4156"/>
<path d="m1678 653.2c-6.27 1.6-11.6 4.8-16.13 9.734-15.74 16.666-11.6 41.466 8.66 52 32 16.8 63.6-23.2 39.74-50.4-2.94-3.334-7.6-7.2-10.54-8.667-6-3.067-15.73-4.267-21.73-2.667z" fill="#2F4156"/>
<path d="m1381.7 967.47c-7.86 2.8-17.6 11.866-21.2 19.866-9.06 19.337 2.14 43.867 22.8 49.997 25.07 7.6 49.07-11.73 47.07-37.863-0.93-10.267-4.53-17.6-12.4-24.534-10.27-9.066-23.73-11.866-36.27-7.466z" fill="#2F4156"/>
<path d="m420.13 198.13c-18.933 5.066-36.666 19.733-44.8 36.8-4.4 9.2-5.6 15.333-19.866 99.733-8.4 49.467-23.734 139.73-34.134 200.67-10.4 60.8-22.8 133.47-27.466 161.33-4.667 27.867-11.867 70.133-16 94-4.134 23.867-11.334 66.133-16.134 94-9.333 55.2-9.733 60.533-4.4 76 6.667 19.333 22.667 34.933 42 41.203 6.267 2 43.334 8.26 191.33 32.66 259.47 42.8 294 48.4 370.27 60.8 24.8 4 46.934 7.74 49.067 8.14l4 0.66 122 21.87c-5.28-3.96-5.36-10.01-4.84-16 0.47-5.51 1.45-10.96-0.66-14.67-20.5-2.83-179.17-31.86-213.3-37.46-34-5.47-115.87-18.94-181.87-29.87-118.53-19.6-311.07-51.333-321.2-52.8-16-2.533-28.933-15.066-30.933-30.133-0.533-3.733 0.933-16.267 4-35.067 5.6-33.866 35.067-205.87 44.933-262 11.734-66.666 23.6-135.33 31.2-180.67 11.2-66.4 29.734-173.6 33.467-194.53 3.733-20.666 6.933-28.533 14.933-35.733 6.134-5.6 18.134-10.4 25.734-10.4 2.8 0 18.533 2.133 34.933 4.667 16.267 2.666 38.933 6.133 50.267 8 25.066 4 158.8 24.266 253.33 38.533 87.2 13.2 143.47 21.733 209.33 32 35.597 5.467 87.467 13.333 115.34 17.467 27.86 4 53.33 8.266 56.53 9.466 11.87 4.4 21.07 16.4 22.4 28.8 0.67 6.667-2.4 27.334-30.4 210.4-3.6 22.934-3.07 32.534 2 36.934 5.07 4.266 9.2 3.866 15.33-1.6 9.07-8.267 7.2 0.8 30.14-147.33 12.8-82.666 13.06-84.533 12.26-98.666-0.8-14.934-3.06-21.734-11.6-34.4-7.2-10.534-18.93-20-30.26-24.267-5.34-2.133-27.87-6-73.74-12.8-36.26-5.333-87.6-12.933-114-17.067-114.27-17.6-301.33-45.866-436.67-66.133-24.534-3.733-56.534-8.533-71.067-10.667-28.933-4.4-40.533-4.8-51.467-1.866z" fill="#2F4156"/>
<path d="m1022.7 876.93c-11.34 16-21.6 30.667-22.937 32.667-1.333 1.867-2.4 4.667-2.4 6.133 0 3.734 7.467 8.934 10.537 7.467 1.33-0.667 16-11.467 32.66-23.867l30.4-22.666-0.8-4.534c-0.4-2.666-2.53-6.533-5.06-9.066-4.27-4.4-16.14-12.934-20.14-14.534-1.33-0.4-8.13 8.134-22.26 28.4z" fill="#FFD44D"/>
<path d="m1126.7 862.27c-10.14 8.933-10.54 10.133-15.2 40.533l-4.4 28.134-22.57 111.57c6.27 11.87 28.17-0.07 29.5 11 0.4 4.67 13.2-62.966 13.47-63.233 0.26-0.267 3.6-19.6 7.2-43.067 3.73-23.333 7.86-49.733 9.33-58.533 2.93-17.867 2.27-24.933-2.8-29.067-4.4-3.466-8.67-2.8-14.53 2.667z" fill="#2F4156"/>
<path d="m468 872.93c-17.733 3.066-91.867 26.133-96.933 30.133-2.134 1.6-2.267 6.533-0.134 8.667 2.8 2.8 7.334 1.866 35.867-7.734 53.867-18 86.533-24.133 86.533-16.133 0 1.467-1.733 6.8-4 11.867-6.4 14.933-4.933 21.733 4.934 23.733 5.866 1.2 16.666-1.467 45.333-10.933 28.267-9.467 44.533-12.8 50.533-10.134 3.2 1.6 3.467 2.134 2.8 7.334-0.4 3.066-1.466 9.066-2.4 13.2-1.6 7.2-1.6 8 0.934 11.333 4 5.333 10.666 5.467 28.266 0.533 7.867-2.266 20.4-5.066 27.867-6.4 16.533-2.666 18.933-1.866 23.6 7.334 3.6 7.2 9.867 13.2 15.067 14.4 6.266 1.6 18.4-0.534 35.066-6.134 27.734-9.2 35.334-8.8 42.534 2.534 7.733 12 14.933 16.133 28 16.133 9.6 0 31.2-5.467 34.933-8.8 1.467-1.333 2.533-3.6 2.267-5.067-0.534-3.866-7.867-4.266-20.8-1.466-11.334 2.533-21.6 2.8-25.467 0.666-1.6-0.8-4.8-4.666-7.333-8.533-11.2-17.6-24.534-19.2-59.6-7.467-23.2 7.734-27.467 7.334-33.2-4-2.934-5.866-9.467-11.6-14.267-12.8-6.933-1.733-27.067 0.667-45.6 5.6-10.4 2.667-19.2 4.667-19.467 4.267-0.266-0.267 0.267-2.933 1.334-5.733 2.4-6.667 2.533-16.267 0.266-20.667-0.933-1.733-3.733-4.667-6.133-6.267-3.733-2.533-6.267-3.066-15.067-3.066-14.266 0-27.466 2.933-50.4 11.2-20.4 7.333-31.733 10.8-32.666 10-0.267-0.267 0.8-4.134 2.266-8.534 3.334-9.333 3.734-20.666 1.067-23.866-3.333-4.267-10.533-6.134-21.867-6-5.866 0.133-12.266 0.533-14.133 0.8z" fill="#2F4156"/>
<path d="m1240.4 1177.9c-9.07 2.93-16.8 8.13-24.4 16.4-10.67 11.6-12.67 16.93-12.67 33.33 0 13.2 0.14 13.87 3.74 17.33l3.6 3.74 237.73 0.4c168 0.26 239.07 0 242.67-1.07 7.46-2.13 9.33-6 9.46-20.4 0.14-11.33-0.26-12.93-4.26-21.2-5.07-10.53-14.8-19.87-26.4-25.73l-7.87-4-208-0.27c-169.47-0.13-209.07 0.13-213.6 1.47z" fill="#2F4156"/>
<path d="m1058.5 1128c-12 0-26-3-26-3l-15-12v-16.5s5-2 12.5-0.5 28 1 36-2.5 11.5-16 11.5-16c3.5-14 10-48.5 10-48.5l27.5 20s-5.5 28-10 44.5c-7.36 27-34.5 34.5-46.5 34.5z" fill="#2F4156"/>
<path d="m1032.6 1124.5c-0.07 0.33-0.13 0.65-0.2 0.98 5.27 1.08 10.61 1.9 15.98 2.45 3.35 0.33 6.73 0.56 10.12 0.56 14.86-0.51 29.69-7.17 39.02-18.91 3.72-4.7 6.4-10.18 7.96-15.96 3.92-14.72 7.01-29.62 10.01-44.53l0.06-0.32-0.26-0.18c-9.16-6.67-18.33-13.34-27.5-20l-0.64-0.47-0.14 0.78c-3.11 16.17-6.18 32.46-10 48.47l0.01-0.01c-2.02 6.18-5.26 12.84-11.22 15.67-11.26 3.75-23.92 3.94-35.7 2.47-4.21-0.82-8.6-0.87-12.79 0.53l-0.31 0.12v0.34 16.5 0.24l0.19 0.15c0.8 0.64 1.61 1.29 2.41 1.93 4.2 3.36 8.39 6.71 12.59 10.07 0.21-0.26 0.41-0.52 0.62-0.78-4.19-3.36-8.39-6.71-12.58-10.07-0.81-0.64-1.61-1.29-2.42-1.93l0.19 0.39v-16.5l-0.31 0.46c3.83-1.28 8.17-1.27 12.21-0.47 12.14 1.5 24.55 1.36 36.3-2.53 6.5-3.14 9.67-9.94 11.78-16.33l0.01-0.01c3.83-16.07 6.89-32.34 10-48.53l-0.78 0.31c9.16 6.67 18.33 13.34 27.5 20l-0.2-0.5c-3 14.89-6.09 29.81-9.99 44.47-1.54 5.66-4.16 11.01-7.78 15.6-9.09 11.46-23.75 18.05-38.24 18.53-3.34 0-6.69-0.22-10.02-0.56-5.33-0.54-10.65-1.36-15.88-2.43zm-0.2 0.98 0.2-0.98 0.21 0.1-0.62 0.78 0.21 0.1z" fill="#2F4156"/>
</svg>