<?xml version="1.0" encoding="UTF-8"?>
<svg fill="none" viewBox="0 0 1366 1366" xmlns="http://www.w3.org/2000/svg">
<path d="m836.52 657.3c-4.731-20.826 7.732-41.695 28.312-47.405l307.87-85.424c21.79-6.045 44.26 7.16 49.58 29.139l29.21 120.79 10.02 49.001c4.24 20.703-8.36 41.128-28.76 46.632l-160.89 43.409-134.68 42.586c-27.886 8.816-57.353-8.078-63.831-36.598l-36.831-162.13z" fill="#fff"/>
<path d="m1157.8 518.83c10.23-2.796 20.28-5.352 30.56-7.098 13-2.209 24.18 0.29 32.55 11.112 4.01 5.174 5.65 11.428 7.18 17.639 4.81 19.643 8.71 39.498 13.73 59.095 5.62 21.981 10.35 44.16 14.55 66.454 0.13 0.714 0.22 1.443 0.25 2.169 0.16 4.293-1.65 6.903-5.16 7.511-3.51 0.606-6.48-1.458-7.43-5.675-2.87-12.71-5.4-25.494-8.36-38.182-4.21-18.111-8.74-36.149-13.02-54.244-2.8-11.793-5.37-23.637-8.11-35.444-0.51-2.216-1.21-4.399-1.98-6.543-2.77-7.722-9.69-11.81-17.85-10.982-8.39 0.852-16.5 2.907-24.61 5.082-41.96 11.26-83.32 24.559-124.81 37.38-42.72 13.197-85.738 25.292-129.19 35.863-17.277 4.203-34.44 8.87-51.804 12.73-5.255 1.168-10.379 2.81-14.83 6.12-8.7 6.468-11.662 15.184-9.96 25.575 3.288 20.077 8.634 39.702 13.477 59.43 6.539 26.642 11.948 53.525 17.507 80.378 3.933 18.998 8 37.97 12.155 56.92 2.947 13.438 12.017 18.914 25.797 15.399 13.983-3.566 27.635-8.237 41.086-13.461 24.525-9.524 49.603-17.395 74.728-25.119 8.55-2.627 17.11-5.211 25.67-7.808 1.05-0.318 2.09-0.687 3.16-0.872 3.51-0.607 6.36 0.994 7.46 4.106 1.15 3.262 0 6.622-3.25 8.109-2.88 1.32-5.98 2.193-9.03 3.124-29.07 8.871-58.126 17.79-86.63 28.379-15.143 5.625-30.181 11.564-45.903 15.448-7.184 1.775-14.443 3.401-21.884 1.627-13.516-3.222-21.381-11.955-24.226-25.365-6.428-30.306-12.783-60.627-19.199-90.936-5.249-24.794-11.46-49.365-17.235-74.037-2.719-11.619-5.952-23.171-7.248-35.045-1.769-16.201 3.257-30.398 20.551-39.833 7.704-4.203 16.29-5.793 24.694-7.888 46.267-11.537 92.676-22.539 138.32-36.452 34.3-10.456 68.58-20.959 102.91-31.345 15.01-4.544 30.1-8.847 45.38-13.321z" fill="#2F4156"/>
<path d="m1007.4 707.65c-10.363 6.067-21.229 6.434-32.524 4.329-6.179-1.152-12.205-3.16-18.492-3.629-9.874-0.736-18.351 3.139-26.377 8.388-9.292 6.077-18.952 11.379-29.959 13.729-1.606 0.343-3.207 0.706-4.865 0.498-3.154-0.397-5.065-2.303-5.523-5.494-0.383-2.665 1.061-5.188 3.692-6.397 0.579-0.265 1.184-0.519 1.804-0.64 9.994-1.958 18.601-6.874 26.872-12.53 8.976-6.138 18.737-10.221 29.696-10.956 5.052-0.339 10.017 0.513 14.892 1.752 6.194 1.574 12.411 3.006 18.805 3.402 5.048 0.312 9.845-0.816 14.128-3.5 5.731-3.589 11.311-7.4 16.971-11.104 7.04-4.614 14.93-7.222 22.93-9.538 3.26-0.945 6.47 0.869 7.72 4.049 1.2 3.063 0.09 6.384-2.79 8.041-0.94 0.54-1.98 0.991-3.03 1.244-9.14 2.206-17.08 6.793-24.63 12.215-2.96 2.129-6.09 4.034-9.32 6.141z" fill="#2F4156"/>
<path d="m1024 625.32c2.17 4.274 1.52 7.153-2.16 9.626-7.28 4.889-14.49 9.9-22.428 13.676-7.511 3.572-15.44 5.391-23.796 5.432-6.032 0.03-12.051-0.136-18.058-0.627-12.866-1.053-24.807 2.019-36.088 8.028-11.306 6.023-22.834 11.484-35.448 14.244-2.746 0.601-5.319 0.4-7.227-1.971-1.692-2.101-2.025-4.446-0.851-6.921 0.779-1.644 1.998-2.873 3.793-3.32 13.057-3.253 24.821-9.536 36.737-15.502 12.857-6.439 26.553-8.982 40.862-7.917 3.462 0.258 6.926 0.247 10.377 0.526 11.457 0.926 21.852-2.065 31.437-8.268 4.52-2.927 9.09-5.79 13.7-8.569 3.54-2.128 6.13-1.654 9.15 1.563z" fill="#2F4156"/>
<path d="m938.35 771.22c-9.206 2.935-16.063 8.908-22.541 15.43-0.579 0.582-1.077 1.248-1.68 1.803-2.718 2.497-6.217 2.762-8.71 0.691-2.689-2.234-3.417-6.29-0.932-9.111 9.771-11.093 20.892-20.309 36.128-22.57 6.46-0.959 12.899 0.518 19.252 1.778 4.518 0.896 9.056 1.102 13.614 0.64 6.085-0.617 11.014-3.609 15.338-7.763 1.319-1.268 2.665-2.576 4.544-2.921 2.499-0.459 4.74 0.071 6.352 2.213 1.704 2.266 1.844 5.505 0.217 7.98-2.42 3.683-6.011 6.122-9.646 8.379-7.475 4.643-15.774 5.794-24.43 5.457-6.238-0.242-12.247-1.799-18.361-2.753-3.027-0.472-6-0.123-9.145 0.747z" fill="#2F4156"/>
<path d="m1180 547.55c-2.37 1.832-4.5 2.514-7.67 2.435-3.48-0.087-5.08 0.504-7.57 2.963-2.6 2.456-3.67 2.85-5.23 1.971-4.58-2.636-9.8-1.085-12.56 3.574-0.88 1.448-1.3 1.438-3.79-0.305-4.05-2.832-9.58-1.604-12.32 2.634-3.19 4.858-2.86 8.648 0.74 12.52 2.06 2.152 2.87 3.643 2.21 4.467-3.48 4.22-2.28 11.078 2.5 14.139 2.5 1.637 2.8 2.275 1.92 3.829-1.99 3.417-0.6 11.33 2.5 14.034 2.48 2.267 2.67 2.903 1.55 5.816-1.93 4.994-1.55 7 1.64 10.441 3.91 4.089 7.71 4.184 11.82 0.189 2.6-2.456 3.67-2.85 5.23-1.971 3.96 2.305 7.99 1.46 11.57-2.337 2.83-3.082 3.68-3.48 5.35-2.493 3.75 2.089 7.57 1.344 11.25-2.136 3.46-3.275 3.67-3.27 6.7-1.829 3.86 1.987 7.89 1.247 11.47-2.131 4-3.787 3.57-7.894-1.28-12.427-2.99-2.806-3.7-4.084-2.93-5.431 0.55-0.931 0.94-3.863 0.8-6.598-0.21-4.312-0.61-5.267-3.52-7.231-2.28-1.527-3.1-2.703-2.55-3.74 0.34-0.832 0.84-3.866 0.91-6.595 0.11-4.305-0.39-5.578-2.66-7.63-2.48-2.268-2.58-2.691-1.42-6.654 1.5-5.005 0.11-8.716-3.96-10.708-3.97-1.885-7.25-1.546-10.7 1.204z" fill="#2F4156"/>
<path d="m1155.4 795.46-104.6 31.379-4.78-12.506 36.39-10.914s46.74-15.041 68.67-20.237c18.01-4.27 36.15-10.233 49.34-13.416 21.6-5.912 28.14-6.886 41.61-11.824 7.05-2.585 13.64-8.641 13.64-20.464 0-5.003-3.41-26.604-3.41-26.604l-13.87-67.078 12.73-4.321 15.24 69.352s4.89 25.922 2.73 37.064c-1.59 8.185-3.19 15.689-16.6 21.146-13.3 5.409-17.49 6.57-30.35 10.135l-0.35 0.098c-45.93 12.733-66.39 18.19-66.39 18.19z" fill="#2F4156"/>
<path d="m444.5 839.5-142 108.5-59-29.5-49.5-46 204-89.5 73-74-64.5-28.5-64-53.5-17-42.5-51-53.5-8.5-49.5-29.5-40-14-65 257 131.5 3.5-160 20-46 146.5 152 19.5 77 107.5-68.5 58 10.5 38 44 70.5 51-77 16.5-46 62-60 136.5-84.5 70-107.5 11-123.5-24.5z" fill="#FFD44D"/>
<mask id="a" x="47" y="180" width="1004" height="1056" style="mask-type:alpha" maskUnits="userSpaceOnUse">
<path d="m855.5 613.5 6.5-5.5 28.5-10.5 3.5 6.5 20-5.5-5-8.5 25.5-6.25 40.5-20.25 75.5-70.5-19.5-58.5-299-205.5-426-49-258.5 140v424l138 406.5 474.5 85 191.5-171-45-189 20-226 29-36z" fill="#D9D9D9"/>
</mask>
<g fill="#2F4156" mask="url(#a)">
<path d="m491.6 289.07c-2.667 2.933-12.4 25.733-16 37.6-4 13.6-4.667 45.2-1.2 59.866l2.667 11.2-3.067 6.8c-6.533 15.067-8 23.867-7.867 49.467 0 18.4 0.534 25.467 2.134 30.4 1.2 3.467 1.733 6.267 1.333 6-0.533-0.267-16.666-8.4-36-18.133-42.4-21.467-88-45.867-156.4-83.734-28.267-15.733-52.933-28.533-54.666-28.533-3.734 0-8.534 3.067-10.534 6.667-1.733 3.333 0.667 36.8 3.467 47.333 4.4 16.8 16.267 38.267 30.133 54.4 5.6 6.4 6.4 8 5.067 9.733-2.267 2.667-0.8 20.934 2.533 32.8 7.067 24.4 29.867 55.867 51.067 70.267 8.533 5.733 8.533 5.867 10.8 15.333 4.933 20.8 20.667 45.467 39.333 61.6 22.667 19.467 56.534 38.667 88.534 50.4l14.266 5.2-5.333 6.134c-7.067 8.133-25.467 24.8-41.2 37.333-34 27.2-70.667 45.333-174.67 86.4-26.8 10.533-50.133 20.267-52 21.6-4.666 3.467-6.133 8.133-3.866 12.933 3.333 6.934 52.933 46.534 74.8 59.734 12.666 7.6 27.199 14.4 37.466 17.6 6.667 2 8.8 2.133 15.333 0.8 9.6-2 16.801-7.067 36.934-25.734 45.067-42.133 82.666-71.866 98.533-77.866 5.067-2 7.333-2.134 11.867-1.067 11.466 2.8 44.266 11.6 44.8 11.867 0.8 0.666-21.467 36.4-22.934 36.533-0.133 0-10.4 1.867-22.933 3.867-20.4 3.466-22.933 4.266-25.6 7.466-4 4.534-3.867 9.334 0.267 13.334 3.866 3.866 3.733 3.866 20.133 1.333 7.067-1.2 13.733-2 14.933-1.733 1.467 0.266-0.133 2.666-5.066 8.133-7.734 8.533-19.2 16.933-28.534 20.8-10 4.4-12.933 12.133-6.8 18.133 6.8 6.934 18.134 2.934 36.934-12.933 13.466-11.467 21.466-20.8 28.4-33.733 2.8-5.2 8.533-14.4 12.666-20.667 4.134-6.267 10.534-16.533 14.134-22.933 3.733-6.667 7.333-11.734 8.533-11.734 1.067 0.134 8 1.067 15.467 2.4l13.333 2.267-7.2 19.467-7.333 19.6-17.867 7.733c-18.667 8-23.067 11.467-23.067 17.733 0 4.934 4.534 9.467 9.334 9.467 2.133 0 7.333-1.467 11.466-3.333 4.134-1.867 7.734-3.334 8-3.334 0.934 0-9.2 16.934-11.866 19.734-1.6 1.733-6.934 5.466-11.734 8.4-4.933 2.8-9.2 6.133-9.733 7.333-1.733 4.4-0.8 9.467 2.267 12.267 4.933 4.533 11.2 3.866 20.533-2.4 19.2-12.667 29.067-28.934 44.4-72.667 2.933-8.133 7.2-19.733 9.6-26l4.533-11.333 21.867-0.8c48.933-2 85.467-13.734 121.73-39.067 24.934-17.333 40.4-33.067 57.2-58 17.2-25.6 28.267-51.867 41.067-97.467 2.933-10.666 6.533-22.666 7.867-26.666l2.4-7.334 1.467 5.334c0.8 2.933 2.666 10.4 4.266 16.666 2.267 9.067 15.734 59.867 38 143.33 13.333 49.6 19.6 70.933 21.6 72.4 4 2.933 11.6 1.733 44.267-7.067 17.6-4.8 46.667-12.533 64.533-17.467 54.67-14.666 77.33-20.8 160.27-43.066 44-11.867 82.53-22.534 85.46-23.6 3.87-1.334 6.14-3.2 7.07-5.6 1.6-3.867 2.8 0.666-57.2-223.47-11.07-41.733-12-43.467-20.53-43.467-2.27 0-6.27 0.667-8.8 1.467-5.07 1.467-68.67 18.8-183.87 49.867l-72.4 19.6-3.2-3.334c-3.733-4.133-5.2-3.466 17.867-8.266 18.133-3.734 20.533-4.667 23.466-8.934 3.2-4.533 2.534-8.133-2.133-12.666-6.933-6.534-47.6-36-55.466-40-5.867-3.2-7.467-4.8-10.267-10.934-11.6-25.2-36.267-45.866-63.334-53.066-12.799-3.467-41.066-3.067-55.333 0.8-20.533 5.466-31.2 12.266-60.667 38.666-9.2 8.267-18.266 16.134-20.133 17.6l-3.6 2.534-0.933-9.734c-3.334-35.733-13.2-56.266-43.6-91.066-25.734-29.467-92.4-95.467-122.8-121.73-7.334-6.266-14.667-7.466-18.667-3.066zm78.4 94.133c37.2 37.2 61.2 64.267 69.867 78.667 9.733 16.133 14.8 34.533 14.8 53.2 0 20.266 0.8 18.8-20.667 34.8l-19.067 14-9.066-6c-8.134-5.334-89.734-46.534-101.73-51.2-3.6-1.467-5.333-3.467-8.266-9.867-6.134-13.2-8.4-27.867-7.467-48.133 0.533-9.467 1.333-19.2 1.867-21.6l1.066-4.267 9.334 10.8c5.2 6 14 15.067 19.866 20 12 10.4 16.934 11.6 22.8 5.733 6.4-6.266 5.067-9.466-12.4-26.933-8.666-8.667-18.4-19.6-21.6-24.4-15.2-22.533-19.066-48.533-11.2-75.733 4.4-15.734 2.534-15.734 19.6-0.134 8.134 7.467 31.734 30.534 52.267 51.067zm-301.07 28.267c82.933 46.266 150.27 81.333 226.4 117.87 61.734 29.6 89.867 43.867 104 53.067 11.2 7.2 27.467 20.667 34.134 28.133 4 4.534 5.6 5.467 9.733 5.467 3.467 0 5.867-0.933 8.133-3.333 6.534-6.4 3.467-14.134-10.8-27.067l-8.533-7.867 7.067-4.666c10.8-7.2 65.6-51.467 78.933-63.734 15.867-14.666 23.6-20.4 34-25.2 12.934-6 23.067-8.266 38-8.266 23.867-0.134 38.4 5.6 54.133 21.333 15.6 15.6 21.467 30 21.601 52.8 0 17.067-4.001 26.8-14.667 36-27.067 23.067-43.333 46.933-52.8 77.333-19.334 62-26.667 79.867-42.533 103.33-24.667 36.533-59.601 63.733-97.467 76.133-20.8 6.8-39.734 9.467-66.934 9.467-34.4 0-54-3.334-116.8-19.734-23.733-6.133-25.2-6.4-31.333-4.8-18.933 4.934-55.067 31.867-105.2 78.267-29.467 27.333-31.867 29.067-38.4 28.267-2.8-0.4-10.267-3.2-16.533-6.134l-11.2-5.466 13.733-9.334c23.467-15.866 38.934-28.4 40.267-32.4 2.667-7.333-4.8-14.533-12.8-12.533-1.867 0.533-16.4 9.867-32.267 20.933l-29.067 20-4.133-2.933c-9.467-6.533-35.6-26.8-35.6-27.6 0-0.4 4.667-2.533 10.4-4.667 15.734-5.866 74.8-30.133 94.267-38.8 42.133-18.533 81.6-40.266 105.73-58.266 7.2-5.2 23.2-19.867 36-32.8l23.067-23.2 14.266 3.466c14.134 3.467 34.934 7.467 39.067 7.467 4.267 0 9.2-6.667 9.2-12.267 0-7.333-4.4-11.2-14.4-12.4-11.733-1.466-47.467-10.666-66.8-17.333-59.2-20.267-99.733-48.267-119.6-82.533-3.333-5.867-3.467-6.534-1.2-5.6 6 2.266 25.733 7.6 30.933 8.4 4.934 0.666 6.001 0.266 9.6-3.334 2.8-2.666 4.134-5.333 4.134-8 0-4.666-4.534-10.933-8-10.933-3.733 0-28.667-8.933-41.067-14.8-21.333-9.867-35.467-22.4-49.2-43.467-7.733-11.866-10.533-17.6-13.067-27.333l-1.733-6.133 14.267 9.333c18.667 12.267 36.133 21.067 42.133 21.067 6.267 0 10-3.867 10-10.4 0-6.134-1.6-7.734-13.2-13.6-47.2-23.6-80.4-58.667-89.6-94.4-1.333-5.467-2.533-11.467-2.533-13.334 0-3.2 0.133-3.2 3.333-1.066 1.867 1.2 15.733 9.066 30.934 17.6zm632.4 142.13c6.934 4.933 11.2 8.8 10.267 9.2-2.4 1.333-23.6 5.733-24.267 5.067-0.266-0.4 0-4.8 0.8-9.867 0.667-5.067 0.934-10 0.667-10.933-1.2-2.8 0.267-2.134 12.533 6.533zm269.74 7.733c1.73 6.934 15.33 57.867 30.26 113.07 14.8 55.333 26.67 100.67 26.4 100.93-0.66 0.667 0.4 0.4-178.4 48.667-110.66 30-141.2 38-141.86 37.2-0.4-0.267-6.4-22.133-13.467-48.533-38.533-143.47-47.2-177.33-46-178.53 1.734-1.733 7.867-3.466 267.33-73.466 27.87-7.467 51.07-13.334 51.6-12.8 0.54 0.4 2.4 6.533 4.14 13.466zm-282.4 33.334c1.333 1.466 2.133 2.933 1.867 3.066-0.801 0.667-27.867 10.267-28.934 10.267-0.4 0 2.133-3.067 5.733-6.667 8.934-9.066 16.934-11.466 21.334-6.666z"/>
<path d="m808 515.07c-12.4 4.266-14.4 24-3.333 32.666 5.067 4 16.133 4.134 21.2 0.134 4.4-3.467 7.467-9.2 7.467-14.267 0-5.867-5.467-14.933-10.667-17.733-5.333-2.934-8.133-3.067-14.667-0.8z"/>
<path d="m1021.3 704c-4.8 1.333-29.596 8-55.33 14.8-25.6 6.667-47.733 13.2-48.933 14.267-3.6 3.066-3.2 11.066 0.667 14.666 1.733 1.6 4.533 2.934 6.133 2.934 3.333 0 107.6-27.067 113.86-29.6 6.94-2.667 8.4-11.067 2.94-16.4-3.87-4-7.34-4-19.34-0.667z"/>
<path d="m1001.1 761.07c-44.67 12.133-68.403 19.066-70.27 20.8-2.933 2.666-3.733 8.666-1.466 12.8 3.333 6.266 5.333 6 70.533-11.467 34.003-9.067 64.933-17.333 68.803-18.533 7.6-2.134 11.33-5.734 11.33-10.934 0-3.466-4.93-9.2-8.67-10.133-1.46-0.4-33.06 7.467-70.26 17.467z"/>
<path d="m770.53 946.4c-40.534 28.8-115.33 59.6-177.47 72.93-42.933 9.2-72.267 11.87-118.13 10.94-34.667-0.67-54.267-2.54-82.934-7.87-18.533-3.33-19.466-3.33-23.6 0.53-4.4 4.14-4 13.74 0.934 17.2 8.8 6.4 74 14.54 117.33 14.54 79.733 0 171.33-22.27 247.33-60.403 24.134-12 54.134-30.8 56.667-35.467 3.067-6 1.067-12.8-4.933-15.867-4.667-2.533-7.6-1.866-15.2 3.467z"/>
</g>
</svg>
