<svg width="369" height="303" viewBox="0 0 369 303" fill="none" xmlns="http://www.w3.org/2000/svg">
<path d="M338 82.5C338 112.047 312.704 136 281.5 136C250.296 136 225 112.047 225 82.5C225 52.9528 250.296 29 281.5 29C312.704 29 338 52.9528 338 82.5Z" fill="#FFD44D"/>
<path fill-rule="evenodd" clip-rule="evenodd" d="M255.664 1.75C254.833 2.713 252.883 9.031 251.331 15.79L248.508 28.08L245.436 27.42C243.747 27.057 238.54 25.657 233.865 24.309C222.897 21.146 220.026 21.083 217.701 23.954C215.181 27.067 215.304 28.046 219.907 41.501C222.13 47.999 223.593 53.626 223.157 54.004C222.722 54.383 217.415 56.113 211.365 57.849C200.069 61.089 196.865 63.171 196.865 67.271C196.865 69.287 203.574 76.479 213.015 84.584L217.666 88.577L209.265 97.994C202.515 105.561 200.865 108.028 200.865 110.55C200.865 112.277 201.653 114.397 202.615 115.261C204.271 116.746 213.613 119.007 224.115 120.464C226.728 120.826 228.865 121.244 228.865 121.392C228.865 121.54 227.972 126.575 226.88 132.581C224.4 146.225 224.399 147.534 226.865 150C229.779 152.914 232.548 152.523 245.405 147.378C251.757 144.836 257.089 142.923 257.253 143.128C257.418 143.333 259.899 147.879 262.767 153.231C268.748 164.393 272.403 168.5 277.656 169.959C282.279 171.243 283.451 171.243 288.074 169.959C293.327 168.5 296.982 164.393 302.963 153.231C305.831 147.879 308.303 143.342 308.456 143.149C308.609 142.955 313.555 144.682 319.446 146.985C333.303 152.403 336.022 152.843 338.752 150.113C341.342 147.523 341.342 147.572 338.797 133.355C337.659 127.001 336.896 121.636 337.1 121.432C337.304 121.228 341.947 120.389 347.418 119.566C360.607 117.585 363.406 116.523 364.889 112.941C366.384 109.333 365.496 107.785 355.618 96.768C351.806 92.516 348.839 88.667 349.026 88.215C349.212 87.763 353.525 83.678 358.61 79.139C363.725 74.573 368.131 69.79 368.471 68.435C369.179 65.614 366.848 61.419 364.142 60.642C351.716 57.077 341.865 53.763 341.865 53.147C341.865 52.726 343.664 46.922 345.863 40.25C350.354 26.625 350.22 24.017 344.939 22.176C342.58 21.353 340.656 21.467 336.618 22.666C322.989 26.714 317.405 27.874 316.739 26.796C316.367 26.194 315.074 20.932 313.864 15.101C311.189 2.2 309.975 0 305.532 0C302.729 0 300.797 1.411 292.408 9.585L282.571 19.169L272.95 9.585C264.968 1.633 262.805 0 260.252 0C258.56 0 256.495 0.787 255.664 1.75ZM282.6 27C284.47 27 287.716 24.475 294.833 17.482L304.521 7.963L307.225 19.732C310.146 32.446 310.433 33.162 313.215 34.681C315.195 35.763 318.947 35.083 333.204 31.058C337.516 29.841 341.18 28.993 341.346 29.173C341.512 29.353 339.914 34.675 337.794 41C333.694 53.236 333.106 57.136 335.115 58.776C335.803 59.337 341.653 61.442 348.115 63.454C354.577 65.465 359.865 67.441 359.865 67.845C359.865 68.248 355.59 72.321 350.365 76.896C337.971 87.748 337.967 87.851 349.472 100.59C354.206 105.831 357.918 110.253 357.722 110.416C357.526 110.579 352.19 111.515 345.865 112.497C328.057 115.262 327.999 115.332 330.912 130.688C332.04 136.635 333.187 142.257 333.46 143.183C333.853 144.512 331.273 143.828 321.191 139.933C314.17 137.22 307.928 135 307.319 135C305.375 135 302.243 139.245 296.814 149.236C290.343 161.146 288.078 163.455 282.865 163.455C277.522 163.455 275.321 161.101 267.952 147.502C264.161 140.507 261.011 135.864 259.794 135.478C258.576 135.091 253.202 136.612 245.85 139.424C239.272 141.941 233.506 144 233.039 144C232.571 144 233.244 138.577 234.534 131.948C237.793 115.204 237.759 115.158 220.088 112.446C213.915 111.498 208.871 110.447 208.879 110.111C208.887 109.775 212.089 105.9 215.996 101.5C225.017 91.34 226.178 89.56 225.395 87.096C225.046 85.994 220.508 81.407 215.312 76.903C210.116 72.398 205.865 68.347 205.865 67.9C205.865 67.454 211.316 65.403 217.979 63.342C233.774 58.457 233.56 58.907 227.948 42.395C225.602 35.495 223.854 29.678 224.063 29.469C224.271 29.26 230.221 30.658 237.284 32.574C249.037 35.764 250.32 35.932 252.419 34.556C254.944 32.902 255.074 32.585 257.355 22.5C258.225 18.65 259.388 13.814 259.939 11.754L260.94 8.008L270.498 17.504C277.546 24.507 280.724 27 282.6 27ZM310.554 53.25C309.333 54.488 301.327 63.375 292.763 73C284.198 82.625 276.489 91.079 275.631 91.787C274.29 92.893 272.829 91.735 265.218 83.537C259.396 77.266 255.638 74.001 254.242 74.001C252.154 74 243.865 81.942 243.865 83.943C243.865 85.622 269.989 114.446 272.378 115.402C276.374 117.002 274.541 118.802 311.484 76.99C323.538 63.348 324.926 61.333 323.989 58.831C323.196 56.711 316.044 51 314.182 51C313.408 51 311.775 52.012 310.554 53.25ZM9.31505 59.407C4.85705 61.349 1.07905 66.357 0.379054 71.255C0.0450543 73.59 -0.0949427 124.12 0.0680573 183.544C0.400057 304.261 -0.274945 293.741 7.51706 299.683L11.2091 302.5H330.511L334.767 299.684C337.444 297.912 339.726 295.316 340.922 292.684C342.723 288.716 342.822 285.216 342.843 224.821C342.863 168.246 342.69 160.968 341.294 159.571C339.415 157.692 337.695 157.57 336.065 159.2C335.157 160.108 334.865 176.039 334.865 224.777V289.154L329.019 295H12.7741L7.86505 290.091V180.156C7.86505 73.41 7.92006 70.153 9.77606 67.861L11.6881 65.5L193.365 64.5L193.702 62.113C193.888 60.8 193.438 59.345 192.702 58.878C191.967 58.412 151.09 58.041 101.865 58.054C29.689 58.074 11.7751 58.335 9.31505 59.407ZM171.865 97.979C170.555 98.806 170.33 109.361 170.088 181.213L169.812 263.5L171.931 265.235C173.533 266.547 174.516 266.722 175.958 265.95C177.81 264.959 177.865 262.563 177.865 182.165C177.865 119.126 177.579 99.114 176.665 98.2C175.229 96.764 173.885 96.702 171.865 97.979ZM35.8651 157.895C33.9191 158.436 33.3651 159.245 33.3651 161.545V164.5H139.365V161.51C139.365 158.997 138.886 158.417 136.365 157.878C132.288 157.006 39.0031 157.022 35.8651 157.895ZM34.0651 191.2C32.5291 192.736 32.5291 195.264 34.0651 196.8C35.7951 198.53 136.935 198.53 138.665 196.8C140.379 195.086 140.147 191.322 138.283 190.607C137.413 190.273 113.878 190 85.983 190C47.869 190 34.9671 190.298 34.0651 191.2ZM208.865 192C208.105 193.421 208.105 194.579 208.865 196C209.912 197.957 210.959 198 257.329 198C299.08 198 304.909 197.813 306.294 196.429C308.267 194.455 308.267 193.545 306.294 191.571C304.909 190.187 299.08 190 257.329 190C210.959 190 209.912 190.043 208.865 192ZM208.831 219.064C206.198 223.983 206.37 224 258.42 224C306.229 224 306.737 223.979 307.38 221.952C308.957 216.985 309.109 217 257.778 217C210.465 217 209.923 217.023 208.831 219.064ZM33.5431 223.656C32.2611 224.938 32.8671 228.787 34.4471 229.393C36.9031 230.336 114.195 230.077 115.702 229.122C116.438 228.655 116.888 227.2 116.702 225.887L116.365 223.5L75.293 223.239C52.703 223.096 33.9151 223.283 33.5431 223.656ZM209.035 244.75C208.037 246.691 208.579 249.109 210.265 250.235C210.87 250.639 225.845 250.976 243.544 250.985C271.477 250.998 275.929 250.793 277.294 249.429C279.153 247.569 279.169 247.436 277.83 244.934C276.838 243.081 275.392 243 243.365 243C212.537 243 209.865 243.136 209.035 244.75Z" fill="#2F4156"/>
</svg>
