<?xml version="1.0" encoding="UTF-8"?>
<svg viewBox="0 0 1128 1024" xmlns="http://www.w3.org/2000/svg">
<path d="m334.5 1012.5-26-22.5-173-241 9-13.5 508.5-114 194.5-36 265.5 214.5-4.5 23-705.5 177-68.5 12.5z" fill="#fff"/>
<path d="m602.5 591-76 26.5-142.5 3-85.5-15.5-35-9-136 81.5-78 15.5-35-11.5v-18.5l156.5-140.5-62.5-20.5 114.5-111.5 215.5-184.5 28-50 28-56 49-43 46.5-22h63l57.5 22 44.5 43 23.5 66.5 64 56-87.5 27v65l31.5 13 95.5 77 25.5 40.5v21l-25.5 9.5-63-20-16 79.5h-54l-56-20-90.5 76z" fill="#FFD44D"/>
<path d="m600.67 20.231c-26.4 3.4666-56.134 15.733-79.334 32.4-11.466 8.2666-32.133 30-40.266 42.267-11.467 17.334-16.134 26.667-26.4 52.667-9.867 24.933-16.134 37.6-23.067 46.667-9.6 12.666-24.8 26.266-50.933 45.866-45.2 34-89.067 70.8-136 114.13-28.534 26.266-108.27 102-132.4 125.47-18.8 18.4-20.267 20.267-20.267 24.667 0 6.533 4.1333 11.467 11.067 13.333 3.066 0.8 15.733 3.467 28 5.734l22.4 4.266-25.734 21.2c-33.866 27.867-102.13 85.867-112.67 95.734-10.267 9.6-15.067 18.8-15.067 28.533 0 14.8 8 21.867 29.733 26.533 11.733 2.4 38.533 2.4 52.667-0.133 43.2-7.6 84.267-25.867 140.27-62.667 11.333-7.466 26-17.466 32.4-22.4l11.733-8.933 25.6 7.867c22.533 6.933 47.6 13.6 64.267 17.066 5.066 1.067 6.133 2.267 17.733 19.467 6.933 10.133 12.267 18.667 12 18.933-0.667 0.667-77.867 18-139.73 31.334-46.8 10-75.867 16.666-100.27 22.933-22.8 5.867-31.2 23.067-20.133 40.8 3.733 6 47.733 65.333 135.07 182.27 23.067 30.8 44.534 58.929 47.867 62.399 7.733 8.27 14.8 12.27 24.933 14.27 10.8 2.13 15.867 1.06 98.267-19.47 83.867-20.933 257.6-64.133 334.93-83.199 233.07-57.6 334.14-83.2 340.14-85.867 23.46-10.8 26.66-31.067 7.6-48.933-13.07-12.534-254.14-204.93-260.67-208.27-2.8-1.333-7.467-2.8-10.4-3.2s-5.333-0.933-5.333-1.2c0-0.533 23.2-53.333 30.933-70.533l7.333-16 10.934 0.533c15.6 0.667 25.466-4 30.933-14.8 5.867-11.6 0.133-33.6-12.8-48.667l-4.4-5.2 4.133-6.666c4.4-7.067 24.8-50 31.067-65.334l3.867-9.466 4.8 0.533c3.733 0.533 5.6 0 7.466-1.867 6.534-6.533 87.337-207.47 98.267-244.4 6.27-20.933-1.2-38.933-20-48.133-16.27-8-34.933-5.0667-46.933 7.2-5.467 5.6-11.467 16.267-32.934 57.6-6.533 12.4-16.266 31.067-21.733 41.333-30.933 58-68.8 135.07-70.533 143.47-0.534 3.067 0 4.533 3.333 7.6l3.867 3.733-8.267 18.267c-4.667 10.133-9.6 21.467-11.2 25.067l-2.8 6.8-10-8.267c-15.6-12.8-34.533-24.8-52.933-33.733-19.734-9.6-19.067-8.667-18.934-31.6 0-10.534 0.667-15.6 2.667-20.534l2.533-6.666 12.667-2.267c18.267-3.2 39.467-8.533 59.2-14.667 19.733-6.133 24.8-9.866 24.8-17.6 0-8.133-4.667-12.666-28-27.333-12.133-7.6-27.467-17.867-34-22.933l-12-9.067-1.6-10.133c-4.667-28.8-20.667-59.867-42.8-82.4-17.867-18.267-35.6-28.933-64.267-38.533-8.666-2.8-21.6-6.1333-28.8-7.2-13.866-2.1333-38.4-2.4-51.866-0.6666zm52.133 26c14.267 2.2666 29.6 7.2 42.533 13.6 33.067 16.533 57.867 47.866 67.467 85.333 4.267 16.933 4 18.267-6.667 29.067-5.2 5.066-11.466 12.933-14.133 17.333-12.4 20.667-13.733 46.267-3.2 57.467 2.667 2.8 2.667 3.2 0.667 13.866-2.667 13.6-2.667 23.334-0.134 41.334 3.067 20.8 4 55.866 2.134 71.466-5.867 47.2-24.667 91.334-54.134 126.67-64.666 77.467-162.93 118.13-269.33 111.33-46.667-3.066-80.933-9.6-123.2-23.6-32.4-10.8-26.8-11.866-60.8 11.734-42.267 29.2-86.8 53.333-117.33 63.6-36.534 12.266-72.267 15.333-90.4 7.733l-3.8667-1.6 2.9333-3.733c6.5334-8.134 81.867-73.2 134.67-116.27 10.667-8.667 20.267-16.533 21.333-17.467 1.6-1.333 5.2-1.2 20 0.8 39.6 5.467 63.067 6.934 100 6.267 26.934-0.533 39.734-1.333 54-3.467 57.6-8.933 99.867-24.933 134.4-50.933 40.667-30.533 66.934-73.2 73.734-119.87 4.133-28.266-0.667-67.733-9.067-75.066-6.267-5.334-17.067-0.134-17.067 8.266 0 2.134 1.2 9.2 2.8 15.734 2.4 10 2.667 14.4 2.134 30.4-0.8 20.4-3.467 33.866-10.267 50.933-18.533 46.267-62.933 83.467-122.67 102.8-18.4 6-33.466 9.333-62.666 13.867-27.6 4.266-83.067 4.266-118 0-23.6-2.934-98.134-14.667-99.2-15.734-2-1.866 116.67-115.33 169.87-162.53 32.8-29.2 66.267-55.733 95.334-76 47.066-32.667 63.333-52.933 81.333-100.67 11.867-31.733 22.267-49.6 39.467-67.866 24.133-25.733 52.933-40.4 89.866-46 8.667-1.2 36.534-0.5334 47.467 1.2zm141.33 145.73c5.067 3.6 14 9.733 19.867 13.733s10.667 7.734 10.667 8.534c0 2-22 8.4-43.6 12.666-27.067 5.467-25.6 5.734-24.667-3.733 0.8-8.8 5.467-20.267 11.067-26.8 4.8-5.867 13.866-12.4 16-11.6 0.8 0.267 5.6 3.6 10.666 7.2zm3.334 156.93c37.2 25.2 68.533 56.8 89.733 90.667 12.267 19.333 12.667 24.133 2.133 23.733-14.666-0.666-38.933-10.4-60.666-24.4-11.6-7.6-13.2-8.266-18.134-7.6-10.266 1.334-13.6 8.134-9.866 20.134l2.266 7.2-5.866 11.866c-3.2 6.4-6.267 13.2-6.8 14.8-0.8 3.2-0.8 3.2-12.534-3.2-9.333-4.933-12.533-6.133-15.466-5.333-5.734 1.333-8.934 5.467-8.934 11.2 0 6.133 3.334 9.733 16.4 17.067 4.934 2.8 8.934 5.733 8.934 6.4 0 0.8-1.6 4.533-3.467 8.4-3.2 6.133-4 6.8-7.067 6.4-16.133-2.667-29.333-5.6-39.466-8.934-18.667-6.266-18-4.266-7.067-20.8 29.733-44.8 44.933-94.533 45.067-146.67v-18.934l8 4c4.4 2.267 14.666 8.534 22.8 14zm-85.467 188.13c12.933 4.933 40.8 12.533 46.4 12.533 1.733 0 2.933 0.533 2.667 1.2-6.267 16.267-16.934 38-19.067 38.933-1.467 0.667-47.6 11.467-102.4 23.867-68.533 15.6-100.53 22.267-102 21.467-1.333-0.667-3.467-2.4-4.8-3.867-2.4-2.8-2.267-2.8 5.333-4.933 54.134-14.934 104-43.2 142.53-80.934 8.933-8.8 15.466-14.133 16.666-13.866 1.067 0.4 7.734 2.8 14.667 5.6zm131.73 62.8c3.6 2.133 19.334 13.866 34.934 26.4 199.33 159.07 218.4 174.67 221.33 179.73 1.73 3.2 1.73 3.733-0.13 5.6-2.54 2.533-7.34 3.733-322.54 81.333-83.466 20.534-283.2 70.134-388 96.267-28.4 7.067-37.466 8.933-46.133 8.933-9.067 0.134-11.467-0.266-13.733-2.4-6.667-6.133-182.8-243.33-182.8-246.27 0-2.8-8.4-0.667 106.67-25.867 185.6-40.533 266.8-58.4 339.33-74.667 40.4-9.066 87.866-19.733 105.73-23.733 20.4-4.533 32.267-6.667 32.267-5.733 0 0.8-4.134 10-9.2 20.4-10.267 20.8-10.4 21.466-16.134 60.4-5.333 36-6.133 41.2-9.6 54.8-4 16.4-1.733 22.533 8.4 22.533 6.534 0 8.4-1.867 43.467-42.133 36.4-41.734 38-43.867 45.333-60.8 16.134-37.6 32.4-72.667 34.934-75.467 3.466-3.867 7.733-3.733 15.866 0.667zm-332.67 37.6 2.266 3.866-14.933 3.467c-38.533 8.8-81.867 18.133-84 18.133-1.467 0-5.467-4.666-11.067-12.933-4.666-7.067-8.4-13.067-8.266-13.067 0.133-0.133 6 0.267 12.933 0.934 16.267 1.6 69.467 0.266 83.333-2.134 16.267-2.666 17.067-2.666 19.734 1.734z" fill="#2F4156"/>
<path d="m648.27 132.76c-20.666 6.667-28 31.067-14.133 47.2 18.133 21.2 52.533 9.2 52.533-18.267 0-20-19.733-34.933-38.4-28.933z" fill="#2F4156"/>
<path d="m625.2 716.5c-3.2 2.267-9.333 7.067-13.6 10.667-9.333 7.733-14.267 10.4-19.2 10.4-2 0-10.533-3.333-18.8-7.6-13.467-6.933-15.867-7.733-22.933-7.6-12.267 0.133-22.4 5.867-40.267 22.667-15.6 14.666-27.2 21.866-35.333 21.866-6.134 0-11.867-2.533-21.867-9.866-21.467-15.734-35.333-12.8-69.733 14.8-5.734 4.533-11.067 8-11.6 7.6-0.667-0.4-1.2-2.267-1.2-4.267-0.134-10.133-9.2-20.267-18.134-20.267-9.2 0-30.533 14-49.466 32.4-18.4 17.867-21.2 24.267-13.867 31.734 2.667 2.666 5.2 3.866 8.133 3.866 3.6 0 6.267-2.266 19.6-16 14.534-15.066 25.467-24 29.2-24 1.067 0 1.6 2.8 1.734 8.934 0.133 13.2 4.266 17.733 15.866 17.733 7.6-0.133 14-3.733 32.934-18.533 9.6-7.467 20.533-15.067 24.266-16.934 8.534-4.266 10.667-3.733 25.067 6 12.8 8.534 17.333 9.867 30.133 9.2 15.734-0.933 28.267-7.6 47.2-24.933 16-14.8 23.867-19.6 30-18.4 2 0.533 9.067 3.867 15.467 7.467 16.533 9.6 26.8 10.4 40.267 3.6 6-3.067 28.266-19.067 34.666-24.934 4.4-4.133 4.4-12-0.133-16.933-4.133-4.4-11.067-4-18.4 1.333z" fill="#2F4156"/>
<path d="m806.67 765.43c-11.2 3.6-20.533 8.666-37.333 20.533-28.134 19.867-44.934 26.933-61.2 26-7.067-0.4-11.467-1.733-22.134-6.667-17.866-8.266-23.2-9.6-31.733-7.733-9.733 2-16 6.133-31.067 20.133-23.333 21.6-29.2 23.734-41.2 15.067-19.2-13.733-29.333-15.2-46.533-6.667-8.267 4-13.733 8.267-25.733 19.6-16.267 15.734-21.867 19.867-26.8 19.867-2.134 0-6.267-2.933-12.134-8.533-14.533-14.134-24.533-16.934-38.933-11.067-24.267 10-61.6 48.4-63.467 65.333-0.666 5.334-0.266 6.534 2.934 9.467 3.6 3.333 8.8 4.4 13.2 2.667 1.2-0.534 6-6.667 10.8-13.867 13.866-21.067 37.866-42.667 47.466-42.667 2.934 0 6.267 2.134 13.334 8.667 12.533 11.6 15.866 13.2 26.533 13.333 11.867 0 19.2-4.266 38.267-22.133 17.733-16.8 25.866-22.533 31.733-22.533 2.933 0 7.6 2.133 14.4 6.533 25.733 16.8 38.667 14.267 68.667-13.6 14.8-13.6 19.466-16.933 24.4-16.933 2 0 9.2 2.666 16 5.866 16.533 7.734 24 9.334 39.066 8.4 20-1.2 32.534-6.4 62.134-26.266 20.666-13.867 28.266-18 39.6-21.2 14.8-4.4 19.2-12.267 11.2-20.267-4.667-4.533-10-4.933-21.467-1.333z" fill="#2F4156"/>
<path d="m801.33 20.764c-3.866 2.1333-19.6 20.133-22.933 26.4-3.2 5.8667-3.067 9.6 0.667 13.733 2.266 2.6667 4.4 3.6 8.133 3.7334 4.8 0.1333 5.867-0.6667 15.6-10.8 16.8-17.333 19.467-24.267 12.4-31.467-4-3.8667-8.667-4.4-13.867-1.6z" fill="#2F4156"/>
<path d="m830.13 84.364c-8 2.8-15.6 6.1333-16.933 7.3333-5.867 5.3334-3.6 16 4 19.2 3.6 1.467 5.6 1.067 20.4-4.133 18.133-6.4 23.733-10.4 23.733-16.933 0-2.1334-1.2-5.4667-2.8-7.4667-3.866-4.9333-10.666-4.5333-28.4 2z" fill="#2F4156"/>
</svg>